<?xml version="1.0" encoding="utf-8"?>
<!-- Generator: Adobe Illustrator 27.5.0, SVG Export Plug-In . SVG Version: 6.00 Build 0)  -->
<svg version="1.1" id="Layer_1" xmlns="http://www.w3.org/2000/svg" xmlns:xlink="http://www.w3.org/1999/xlink" x="0px" y="0px"
	 viewBox="0 0 2329.8 1054.3" enable-background="new 0 0 2329.8 1054.3" xml:space="preserve">
<g>
	<path fill="#939598" d="M423.5,297.2c0-53.3,43.4-96.7,96.7-96.7h63.6h97h46.5c57.5,0,111.2-25.8,147.1-70.7
		c26.2-32.8,65.3-51.5,107.2-51.5h59.6h18.1h59.6c41.9,0,81,18.8,107.2,51.5c36,44.9,89.6,70.7,147.1,70.7h207
		c53.3,0,96.7,43.4,96.7,96.7v9.2h51.1v-9.2c0-81.5-66.3-147.8-147.8-147.8h-207c-41.9,0-81-18.8-107.2-51.5
		c-36-44.9-89.6-70.7-147.1-70.7h-59.6h-18.1h-59.6c-57.5,0-111.2,25.8-147.1,70.7c-21.3,26.6-51.1,43.8-84,49.4
		c1.7-6.1,2.7-12.5,2.7-19.2c0-39.9-32.5-72.4-72.4-72.4h-97c-39.9,0-72.4,32.5-72.4,72.4c0,7.5,1.2,14.8,3.3,21.6
		c-78.9,2.9-142.2,67.9-142.2,147.5v9.2h51.1V297.2z M583.8,106.7h97c11.8,0,21.3,9.6,21.3,21.3s-9.6,21.3-21.3,21.3h-97
		c-11.8,0-21.3-9.6-21.3-21.3S572,106.7,583.8,106.7z"/>
	<path fill="#939598" d="M1676.9,962.3c0,5.5-4.5,10-10,10H433.6c-5.5,0-10-4.5-10-10V853.6h-51.1v108.7c0,33.7,27.4,61.1,61.1,61.1
		h1233.2c33.7,0,61.1-27.4,61.1-61.1V853.6h-51.1V962.3z"/>
	<path fill="#939598" d="M149.3,508.2c-31.2,0-59.1,10.1-83.7,30.2c-30.2,27.5-45.3,60.2-45.3,98.1c0,29.8,10.1,57.3,30.2,82.6
		c27,30.2,59.6,45.3,97.7,45.3h1.1c33.9,0,63.7-12.3,89.6-37v-0.7l-35.7-35.7c-16.2,14.9-34.4,22.3-54.5,22.3
		c-12,0-23.5-2.8-34.6-8.3c-18.8-10.1-31.4-24.5-37.7-43.4h198c1.5-7.4,2.3-16,2.6-25.6c0-29.6-10.1-57.2-30.2-82.6
		C219.4,523.3,186.9,508.2,149.3,508.2z M76.3,610.9l5-12.5c17.4-26.1,39.6-39.2,66.8-39.2c12.4,0,25.1,3.2,38.1,9.6
		c17.4,10.9,28.9,25,34.6,42H76.3z"/>
	<rect x="298.8" y="379.9" fill="#939598" width="51" height="384.6"/>
	<rect x="371.8" y="379.9" fill="#939598" width="51" height="384.6"/>
	<path fill="#939598" d="M495.1,459.6c-4.2-13.4-12.4-20.1-24.5-20.1l-7.4,1.1c-12.3,4.4-18.4,12.4-18.4,24.1v1.7l0.7,5
		c4.5,12.7,12.6,19,24.1,19h2.2l5-0.4c12.7-4.7,19-12.9,19-24.7L495.1,459.6z"/>
	<rect x="444.7" y="508.2" fill="#939598" width="51" height="256.2"/>
	<path fill="#939598" d="M1082.8,490.5h2.2l5-0.4c12.7-4.7,19.1-12.9,19.1-24.7l-0.7-5.7c-4.2-13.4-12.4-20.1-24.5-20.1l-7.4,1.1
		c-12.3,4.4-18.4,12.4-18.4,24.1v1.7l0.6,5C1063.3,484.1,1071.3,490.5,1082.8,490.5z"/>
	<path fill="#939598" d="M1219.3,559.2h222.5v-51h-222.5c-29.3,0-50.7,7.9-63.9,23.7c-13.4,16.5-20.1,34.4-20.1,53.7
		c0,21.3,6.9,39.3,20.8,53.9c16.5,14.9,34.4,22.3,53.9,22.3h74c20.9,0,31.3,8.6,31.3,25.8l-1.8,10.7c-4.2,10.1-12.3,15.1-24.1,15.1
		h-180.2V508.2h-2.6h-48.4H884c-29.3,0-50.7,7.9-63.9,23.7c-13.4,16.5-20.1,34.4-20.1,53.7c0,21.3,6.9,39.3,20.8,53.9
		c16.5,14.9,34.5,22.3,53.9,22.3h74c20.9,0,31.3,8.6,31.3,25.8l-1.8,10.7c-4.2,10.1-12.3,15.1-24.1,15.1H747.4
		c17.5-22.6,26.5-47.2,26.5-73.8v-7.9c0-25.8-9-50.9-26.9-75.1c-27.6-32.8-61.4-49.3-101.4-49.3c-26.9,0-52.1,8.4-75.8,25.2h-1.1
		v-25.2h-51v410.4h51V738.8h1.1c23.5,16.5,47.2,24.7,71.2,24.7H651c21.3,0,42.1-6.4,62.4-19.2v20.1h243.5c9.9,0,20.6-2.6,32-7.9
		c28-14,42-36.8,42-68.3c0-9.8-1.7-19.7-5-29.8c-12.7-31.7-39.8-47.5-81.2-47.5h-68.5l-9.4-1.8c-10.5-3.9-15.8-11.6-15.8-23
		c0-6.6,2.4-13.3,7.2-20.1c3.4-4.5,12-6.8,25.8-6.8h174.1v154.2h-9.4v51h9.4h51h183.1c9.9,0,20.6-2.6,32-7.9c28-14,42-36.8,42-68.3
		c0-9.8-1.7-19.7-5-29.8c-12.7-31.7-39.8-47.5-81.2-47.5h-68.5l-9.4-1.8c-10.5-3.9-15.8-11.6-15.8-23c0-6.6,2.4-13.3,7.2-20.1
		C1196.8,561.5,1205.4,559.2,1219.3,559.2z M722.8,636.8c0,15.5-5,30.7-15.1,45.6c-17.7,20.1-37.1,30.2-58.2,30.2h-6.8
		c-10.1,0-21.3-3-33.7-9c-26.9-16.9-40.3-39.7-40.3-68.3c0-15.2,4.9-30,14.7-44.5c17.1-21.6,38-32.4,62.6-32.4
		c14.9,0,29.5,4.7,43.8,14c22,16.8,33.1,37.5,33.1,62.2V636.8z"/>
	<path fill="#939598" d="M1707.7,569.7c-7.6-9.4-16.6-17.3-27-23.9c-10.4-6.6-21.8-11.2-34.1-13.9c3.9-3.9,7.8-7.7,11.6-11.4
		c3.8-3.7,7.5-7.4,11-11.1V459h-178.4v50.3h107.1l-12,12c-2.9,2.9-6.1,6.1-9.6,9.6c-3.5,3.5-7,6.9-10.5,10.3
		c-3.5,3.4-6.8,6.6-9.9,9.7c-3.1,3.1-5.7,5.7-7.7,7.7l35.8,35.8c5.1-4.7,11-8.4,17.6-11c6.6-2.6,13.7-3.9,21.3-3.9
		c8.2,0,15.9,1.5,23,4.6c7.1,3.1,13.3,7.3,18.7,12.7c5.3,5.4,9.6,11.6,12.6,18.7c3.1,7.1,4.6,14.8,4.6,23c0,7.8-1.5,15.3-4.5,22.4
		c-3,7.1-7.1,13.3-12.2,18.7c-5.1,5.4-11.2,9.7-18.2,13c-7,3.3-14.4,4.9-22.2,4.9h-134.2v50.3h132.4c15,0,29.2-2.9,42.4-8.6
		c13.3-5.8,24.8-13.6,34.7-23.5c9.9-9.9,17.7-21.4,23.5-34.7c5.8-13.3,8.6-27.4,8.6-42.4c0-13.2-2.2-25.6-6.5-37.3
		C1721.3,589.6,1715.3,579,1707.7,569.7z"/>
	<path fill="#939598" d="M1977.6,604.7c-3.8-6.6-8.4-12.5-13.9-17.9c-5.5-5.3-11.6-9.9-18.4-13.6c-11.1-6-22.9-9.3-35.5-9.9
		c-9.1-0.4-17.7,0.9-25.9,3.9c-8.2,3-15.5,7.4-21.8,13.1c-6.3,5.8-11.4,12.6-15.3,20.4c-3.9,7.8-6.1,16.3-6.5,25.3v2.5h50.3
		c0.4-4.3,2.2-7.9,5.2-10.8c3.3-2.9,7.1-4.2,11.4-4c4.5,0.2,8.7,1.2,12.5,3.1c3.8,1.9,7.1,4.3,10,7.4c6,6.6,8.7,14.4,8.3,23.5
		c-0.4,7.2-2.2,13.9-5.2,20.2c-3.1,6.3-7.2,11.8-12.4,16.5c-5.1,4.7-11,8.3-17.4,10.6c-6.5,2.4-13.4,3.3-20.8,2.9
		c-11.1-0.4-21.3-2.9-30.6-7.6c-9.2-4.6-17.3-10.7-24.1-18.4c-6.8-7.4-12-16-15.6-25.8c-3.6-9.8-5.2-20.1-4.8-31
		c0.8-15.4,4.5-29.7,11-42.7c6.5-13.1,15-24.4,25.5-34.1c10.7-9.9,22.9-17.4,36.7-22.5c13.8-5.1,28.4-7.3,43.8-6.5V459
		c-22-0.8-42.9,2.6-62.8,10.2c-19.9,7.6-37.3,18.4-52.5,32.2c-15.1,13.9-27.3,30.3-36.6,49.4c-9.3,19-14.4,39.7-15.4,61.9
		c-1,17.9,1.5,34.8,7.6,50.8c6.1,15.9,14.7,30.1,25.8,42.4c11.1,12.3,24.3,22.3,39.7,29.8c15.3,7.5,31.9,11.7,49.8,12.5
		c14.2,0.8,27.7-1.2,40.6-6c12.9-4.8,24.2-11.7,33.9-20.5s17.7-19.4,23.8-31.8c6.1-12.3,9.5-25.6,10.3-39.8
		c0.4-8.2-0.4-16.2-2.3-23.9C1984.3,618.4,1981.4,611.3,1977.6,604.7z"/>
	<path fill="#939598" d="M2291.9,547.3c-7.6-17.5-17.9-32.8-31-46c-13.1-13.2-28.4-23.6-46-31.2c-17.6-7.6-36.4-11.4-56.3-11.4
		c-20,0-38.7,3.8-56.3,11.4c-17.6,7.6-33,18-46.1,31.2c-13.2,13.2-23.6,28.5-31.2,46c-7.6,17.5-11.4,36.2-11.4,56.2
		c0,20,3.8,38.7,11.4,56.3c7.6,17.6,18,32.9,31.2,46c13.2,13.1,28.5,23.4,46.1,31c17.6,7.6,36.4,11.4,56.3,11.4
		c20,0,38.7-3.8,56.3-11.4c17.6-7.6,32.9-17.9,46-31c13.1-13.1,23.4-28.4,31-46s11.4-36.4,11.4-56.3
		C2303.3,583.5,2299.5,564.8,2291.9,547.3z M2245.6,640.2c-4.9,11.5-11.7,21.6-20.2,30.1c-8.6,8.5-18.6,15.3-30.1,20.2
		c-11.5,4.9-23.8,7.4-36.8,7.4s-25.2-2.5-36.8-7.4c-11.5-4.9-21.6-11.7-30.1-20.2c-8.6-8.5-15.3-18.6-20.2-30.1
		c-4.9-11.5-7.4-23.8-7.4-36.7c0-13,2.5-25.2,7.4-36.7c4.9-11.5,11.7-21.5,20.2-30.1c8.5-8.5,18.6-15.3,30.1-20.2s23.8-7.4,36.8-7.4
		s25.2,2.5,36.8,7.4c11.5,4.9,21.6,11.7,30.1,20.2c8.5,8.5,15.3,18.6,20.2,30.1c4.9,11.5,7.4,23.8,7.4,36.7
		C2253,616.4,2250.5,628.7,2245.6,640.2z"/>
</g>
</svg>
