<?xml version="1.0" standalone="no"?>
<!DOCTYPE svg PUBLIC "-//W3C//DTD SVG 1.1//EN" "http://www.w3.org/Graphics/SVG/1.1/DTD/svg11.dtd" >
<svg xmlns="http://www.w3.org/2000/svg" xmlns:xlink="http://www.w3.org/1999/xlink" version="1.1">
<metadata>
Created by FontForge 20170731 at Fri Aug  4 10:00:24 2023
 By Aleksey,,,
Copyright  2016 by Jorge Cisterna. All rights reserved.
</metadata>
<defs>
<font id="FONTSPRINGDEMO-CagliariThinRegular" horiz-adv-x="1224" >
  <font-face 
    font-family="FSP DEMO - Cagliari Thin"
    font-weight="250"
    font-stretch="normal"
    units-per-em="2048"
    panose-1="0 0 3 0 0 0 0 0 0 0"
    ascent="1638"
    descent="-410"
    x-height="1065"
    cap-height="1495"
    bbox="-68.3902 -420 2312 1597"
    underline-thickness="102"
    underline-position="-307"
    unicode-range="U+0020-007E"
  />
<missing-glyph 
d="M207 403q-13 0 -19 -2v-200q4 -2 19 -2q37 0 50 25t13 77q0 54 -13 78t-50 24zM518 330v-49h-82v-78h96v-49h-155v297h155v-52h-96v-69h82zM203 150q-47 0 -74 4v292q61 9 76 9q67 0 96 -37.5t29 -116.5t-29.5 -115t-97.5 -36zM586 451h80l39 -164l38 164h82
q3 -45 13 -297h-60q0 108 -6 213l-41 -168h-55l-41 168h-2q-4 -140 -4 -213h-58q3 156 15 297zM987 150q-60 0 -84 35.5t-24 115.5q0 81 24 117.5t84 36.5t85.5 -37t25.5 -117q0 -79 -25.5 -115t-85.5 -36zM987 403q-29 0 -39 -23.5t-10 -78.5q0 -54 10 -78t39 -24
q30 0 40.5 24t10.5 78q0 55 -10 78.5t-41 23.5zM967 1016q49 0 79.5 -24.5t39 -51t8.5 -53.5q0 -43 -34.5 -72.5t-72.5 -34.5q-213 -23 -340 -147q3 8 9 22t25 53.5t39 75.5t50 80.5t59.5 76t66 53.5t71.5 22zM285 909q39 0 78 -21t69.5 -55t58.5 -74.5t48 -81.5t35 -75
t22 -55l8 -21q-117 148 -319 148q-49 0 -88 30t-39 76q0 53 33.5 91t93.5 38zM643 1214q38 -37 48.5 -102t-2.5 -131t-31.5 -126.5t-35.5 -98.5l-18 -39q20 191 -125 330q-35 35 -42 81.5t24 83.5q23 23 53 34t65 3.5t64 -35.5z" />
    <glyph glyph-name=".notdef" 
d="M207 403q-13 0 -19 -2v-200q4 -2 19 -2q37 0 50 25t13 77q0 54 -13 78t-50 24zM518 330v-49h-82v-78h96v-49h-155v297h155v-52h-96v-69h82zM203 150q-47 0 -74 4v292q61 9 76 9q67 0 96 -37.5t29 -116.5t-29.5 -115t-97.5 -36zM586 451h80l39 -164l38 164h82
q3 -45 13 -297h-60q0 108 -6 213l-41 -168h-55l-41 168h-2q-4 -140 -4 -213h-58q3 156 15 297zM987 150q-60 0 -84 35.5t-24 115.5q0 81 24 117.5t84 36.5t85.5 -37t25.5 -117q0 -79 -25.5 -115t-85.5 -36zM987 403q-29 0 -39 -23.5t-10 -78.5q0 -54 10 -78t39 -24
q30 0 40.5 24t10.5 78q0 55 -10 78.5t-41 23.5zM967 1016q49 0 79.5 -24.5t39 -51t8.5 -53.5q0 -43 -34.5 -72.5t-72.5 -34.5q-213 -23 -340 -147q3 8 9 22t25 53.5t39 75.5t50 80.5t59.5 76t66 53.5t71.5 22zM285 909q39 0 78 -21t69.5 -55t58.5 -74.5t48 -81.5t35 -75
t22 -55l8 -21q-117 148 -319 148q-49 0 -88 30t-39 76q0 53 33.5 91t93.5 38zM643 1214q38 -37 48.5 -102t-2.5 -131t-31.5 -126.5t-35.5 -98.5l-18 -39q20 191 -125 330q-35 35 -42 81.5t24 83.5q23 23 53 34t65 3.5t64 -35.5z" />
    <glyph glyph-name=".null" horiz-adv-x="0" 
 />
    <glyph glyph-name="nonmarkingreturn" horiz-adv-x="682" 
 />
    <glyph glyph-name="space" unicode=" " horiz-adv-x="552" 
 />
    <glyph glyph-name="exclam" unicode="!" 
d="M207 403q-13 0 -19 -2v-200q4 -2 19 -2q37 0 50 25t13 77q0 54 -13 78t-50 24zM518 330v-49h-82v-78h96v-49h-155v297h155v-52h-96v-69h82zM203 150q-47 0 -74 4v292q61 9 76 9q67 0 96 -37.5t29 -116.5t-29.5 -115t-97.5 -36zM586 451h80l39 -164l38 164h82
q3 -45 13 -297h-60q0 108 -6 213l-41 -168h-55l-41 168h-2q-4 -140 -4 -213h-58q3 156 15 297zM987 150q-60 0 -84 35.5t-24 115.5q0 81 24 117.5t84 36.5t85.5 -37t25.5 -117q0 -79 -25.5 -115t-85.5 -36zM987 403q-29 0 -39 -23.5t-10 -78.5q0 -54 10 -78t39 -24
q30 0 40.5 24t10.5 78q0 55 -10 78.5t-41 23.5zM967 1016q49 0 79.5 -24.5t39 -51t8.5 -53.5q0 -43 -34.5 -72.5t-72.5 -34.5q-213 -23 -340 -147q3 8 9 22t25 53.5t39 75.5t50 80.5t59.5 76t66 53.5t71.5 22zM285 909q39 0 78 -21t69.5 -55t58.5 -74.5t48 -81.5t35 -75
t22 -55l8 -21q-117 148 -319 148q-49 0 -88 30t-39 76q0 53 33.5 91t93.5 38zM643 1214q38 -37 48.5 -102t-2.5 -131t-31.5 -126.5t-35.5 -98.5l-18 -39q20 191 -125 330q-35 35 -42 81.5t24 83.5q23 23 53 34t65 3.5t64 -35.5z" />
    <glyph glyph-name="quotedbl" unicode="&#x22;" 
d="M207 403q-13 0 -19 -2v-200q4 -2 19 -2q37 0 50 25t13 77q0 54 -13 78t-50 24zM518 330v-49h-82v-78h96v-49h-155v297h155v-52h-96v-69h82zM203 150q-47 0 -74 4v292q61 9 76 9q67 0 96 -37.5t29 -116.5t-29.5 -115t-97.5 -36zM586 451h80l39 -164l38 164h82
q3 -45 13 -297h-60q0 108 -6 213l-41 -168h-55l-41 168h-2q-4 -140 -4 -213h-58q3 156 15 297zM987 150q-60 0 -84 35.5t-24 115.5q0 81 24 117.5t84 36.5t85.5 -37t25.5 -117q0 -79 -25.5 -115t-85.5 -36zM987 403q-29 0 -39 -23.5t-10 -78.5q0 -54 10 -78t39 -24
q30 0 40.5 24t10.5 78q0 55 -10 78.5t-41 23.5zM967 1016q49 0 79.5 -24.5t39 -51t8.5 -53.5q0 -43 -34.5 -72.5t-72.5 -34.5q-213 -23 -340 -147q3 8 9 22t25 53.5t39 75.5t50 80.5t59.5 76t66 53.5t71.5 22zM285 909q39 0 78 -21t69.5 -55t58.5 -74.5t48 -81.5t35 -75
t22 -55l8 -21q-117 148 -319 148q-49 0 -88 30t-39 76q0 53 33.5 91t93.5 38zM643 1214q38 -37 48.5 -102t-2.5 -131t-31.5 -126.5t-35.5 -98.5l-18 -39q20 191 -125 330q-35 35 -42 81.5t24 83.5q23 23 53 34t65 3.5t64 -35.5z" />
    <glyph glyph-name="numbersign" unicode="#" 
d="M207 403q-13 0 -19 -2v-200q4 -2 19 -2q37 0 50 25t13 77q0 54 -13 78t-50 24zM518 330v-49h-82v-78h96v-49h-155v297h155v-52h-96v-69h82zM203 150q-47 0 -74 4v292q61 9 76 9q67 0 96 -37.5t29 -116.5t-29.5 -115t-97.5 -36zM586 451h80l39 -164l38 164h82
q3 -45 13 -297h-60q0 108 -6 213l-41 -168h-55l-41 168h-2q-4 -140 -4 -213h-58q3 156 15 297zM987 150q-60 0 -84 35.5t-24 115.5q0 81 24 117.5t84 36.5t85.5 -37t25.5 -117q0 -79 -25.5 -115t-85.5 -36zM987 403q-29 0 -39 -23.5t-10 -78.5q0 -54 10 -78t39 -24
q30 0 40.5 24t10.5 78q0 55 -10 78.5t-41 23.5zM967 1016q49 0 79.5 -24.5t39 -51t8.5 -53.5q0 -43 -34.5 -72.5t-72.5 -34.5q-213 -23 -340 -147q3 8 9 22t25 53.5t39 75.5t50 80.5t59.5 76t66 53.5t71.5 22zM285 909q39 0 78 -21t69.5 -55t58.5 -74.5t48 -81.5t35 -75
t22 -55l8 -21q-117 148 -319 148q-49 0 -88 30t-39 76q0 53 33.5 91t93.5 38zM643 1214q38 -37 48.5 -102t-2.5 -131t-31.5 -126.5t-35.5 -98.5l-18 -39q20 191 -125 330q-35 35 -42 81.5t24 83.5q23 23 53 34t65 3.5t64 -35.5z" />
    <glyph glyph-name="dollar" unicode="$" 
d="M207 403q-13 0 -19 -2v-200q4 -2 19 -2q37 0 50 25t13 77q0 54 -13 78t-50 24zM518 330v-49h-82v-78h96v-49h-155v297h155v-52h-96v-69h82zM203 150q-47 0 -74 4v292q61 9 76 9q67 0 96 -37.5t29 -116.5t-29.5 -115t-97.5 -36zM586 451h80l39 -164l38 164h82
q3 -45 13 -297h-60q0 108 -6 213l-41 -168h-55l-41 168h-2q-4 -140 -4 -213h-58q3 156 15 297zM987 150q-60 0 -84 35.5t-24 115.5q0 81 24 117.5t84 36.5t85.5 -37t25.5 -117q0 -79 -25.5 -115t-85.5 -36zM987 403q-29 0 -39 -23.5t-10 -78.5q0 -54 10 -78t39 -24
q30 0 40.5 24t10.5 78q0 55 -10 78.5t-41 23.5zM967 1016q49 0 79.5 -24.5t39 -51t8.5 -53.5q0 -43 -34.5 -72.5t-72.5 -34.5q-213 -23 -340 -147q3 8 9 22t25 53.5t39 75.5t50 80.5t59.5 76t66 53.5t71.5 22zM285 909q39 0 78 -21t69.5 -55t58.5 -74.5t48 -81.5t35 -75
t22 -55l8 -21q-117 148 -319 148q-49 0 -88 30t-39 76q0 53 33.5 91t93.5 38zM643 1214q38 -37 48.5 -102t-2.5 -131t-31.5 -126.5t-35.5 -98.5l-18 -39q20 191 -125 330q-35 35 -42 81.5t24 83.5q23 23 53 34t65 3.5t64 -35.5z" />
    <glyph glyph-name="percent" unicode="%" 
d="M207 403q-13 0 -19 -2v-200q4 -2 19 -2q37 0 50 25t13 77q0 54 -13 78t-50 24zM518 330v-49h-82v-78h96v-49h-155v297h155v-52h-96v-69h82zM203 150q-47 0 -74 4v292q61 9 76 9q67 0 96 -37.5t29 -116.5t-29.5 -115t-97.5 -36zM586 451h80l39 -164l38 164h82
q3 -45 13 -297h-60q0 108 -6 213l-41 -168h-55l-41 168h-2q-4 -140 -4 -213h-58q3 156 15 297zM987 150q-60 0 -84 35.5t-24 115.5q0 81 24 117.5t84 36.5t85.5 -37t25.5 -117q0 -79 -25.5 -115t-85.5 -36zM987 403q-29 0 -39 -23.5t-10 -78.5q0 -54 10 -78t39 -24
q30 0 40.5 24t10.5 78q0 55 -10 78.5t-41 23.5zM967 1016q49 0 79.5 -24.5t39 -51t8.5 -53.5q0 -43 -34.5 -72.5t-72.5 -34.5q-213 -23 -340 -147q3 8 9 22t25 53.5t39 75.5t50 80.5t59.5 76t66 53.5t71.5 22zM285 909q39 0 78 -21t69.5 -55t58.5 -74.5t48 -81.5t35 -75
t22 -55l8 -21q-117 148 -319 148q-49 0 -88 30t-39 76q0 53 33.5 91t93.5 38zM643 1214q38 -37 48.5 -102t-2.5 -131t-31.5 -126.5t-35.5 -98.5l-18 -39q20 191 -125 330q-35 35 -42 81.5t24 83.5q23 23 53 34t65 3.5t64 -35.5z" />
    <glyph glyph-name="ampersand" unicode="&#x26;" 
d="M207 403q-13 0 -19 -2v-200q4 -2 19 -2q37 0 50 25t13 77q0 54 -13 78t-50 24zM518 330v-49h-82v-78h96v-49h-155v297h155v-52h-96v-69h82zM203 150q-47 0 -74 4v292q61 9 76 9q67 0 96 -37.5t29 -116.5t-29.5 -115t-97.5 -36zM586 451h80l39 -164l38 164h82
q3 -45 13 -297h-60q0 108 -6 213l-41 -168h-55l-41 168h-2q-4 -140 -4 -213h-58q3 156 15 297zM987 150q-60 0 -84 35.5t-24 115.5q0 81 24 117.5t84 36.5t85.5 -37t25.5 -117q0 -79 -25.5 -115t-85.5 -36zM987 403q-29 0 -39 -23.5t-10 -78.5q0 -54 10 -78t39 -24
q30 0 40.5 24t10.5 78q0 55 -10 78.5t-41 23.5zM967 1016q49 0 79.5 -24.5t39 -51t8.5 -53.5q0 -43 -34.5 -72.5t-72.5 -34.5q-213 -23 -340 -147q3 8 9 22t25 53.5t39 75.5t50 80.5t59.5 76t66 53.5t71.5 22zM285 909q39 0 78 -21t69.5 -55t58.5 -74.5t48 -81.5t35 -75
t22 -55l8 -21q-117 148 -319 148q-49 0 -88 30t-39 76q0 53 33.5 91t93.5 38zM643 1214q38 -37 48.5 -102t-2.5 -131t-31.5 -126.5t-35.5 -98.5l-18 -39q20 191 -125 330q-35 35 -42 81.5t24 83.5q23 23 53 34t65 3.5t64 -35.5z" />
    <glyph glyph-name="quotesingle" unicode="'" 
d="M207 403q-13 0 -19 -2v-200q4 -2 19 -2q37 0 50 25t13 77q0 54 -13 78t-50 24zM518 330v-49h-82v-78h96v-49h-155v297h155v-52h-96v-69h82zM203 150q-47 0 -74 4v292q61 9 76 9q67 0 96 -37.5t29 -116.5t-29.5 -115t-97.5 -36zM586 451h80l39 -164l38 164h82
q3 -45 13 -297h-60q0 108 -6 213l-41 -168h-55l-41 168h-2q-4 -140 -4 -213h-58q3 156 15 297zM987 150q-60 0 -84 35.5t-24 115.5q0 81 24 117.5t84 36.5t85.5 -37t25.5 -117q0 -79 -25.5 -115t-85.5 -36zM987 403q-29 0 -39 -23.5t-10 -78.5q0 -54 10 -78t39 -24
q30 0 40.5 24t10.5 78q0 55 -10 78.5t-41 23.5zM967 1016q49 0 79.5 -24.5t39 -51t8.5 -53.5q0 -43 -34.5 -72.5t-72.5 -34.5q-213 -23 -340 -147q3 8 9 22t25 53.5t39 75.5t50 80.5t59.5 76t66 53.5t71.5 22zM285 909q39 0 78 -21t69.5 -55t58.5 -74.5t48 -81.5t35 -75
t22 -55l8 -21q-117 148 -319 148q-49 0 -88 30t-39 76q0 53 33.5 91t93.5 38zM643 1214q38 -37 48.5 -102t-2.5 -131t-31.5 -126.5t-35.5 -98.5l-18 -39q20 191 -125 330q-35 35 -42 81.5t24 83.5q23 23 53 34t65 3.5t64 -35.5z" />
    <glyph glyph-name="parenleft" unicode="(" 
d="M207 403q-13 0 -19 -2v-200q4 -2 19 -2q37 0 50 25t13 77q0 54 -13 78t-50 24zM518 330v-49h-82v-78h96v-49h-155v297h155v-52h-96v-69h82zM203 150q-47 0 -74 4v292q61 9 76 9q67 0 96 -37.5t29 -116.5t-29.5 -115t-97.5 -36zM586 451h80l39 -164l38 164h82
q3 -45 13 -297h-60q0 108 -6 213l-41 -168h-55l-41 168h-2q-4 -140 -4 -213h-58q3 156 15 297zM987 150q-60 0 -84 35.5t-24 115.5q0 81 24 117.5t84 36.5t85.5 -37t25.5 -117q0 -79 -25.5 -115t-85.5 -36zM987 403q-29 0 -39 -23.5t-10 -78.5q0 -54 10 -78t39 -24
q30 0 40.5 24t10.5 78q0 55 -10 78.5t-41 23.5zM967 1016q49 0 79.5 -24.5t39 -51t8.5 -53.5q0 -43 -34.5 -72.5t-72.5 -34.5q-213 -23 -340 -147q3 8 9 22t25 53.5t39 75.5t50 80.5t59.5 76t66 53.5t71.5 22zM285 909q39 0 78 -21t69.5 -55t58.5 -74.5t48 -81.5t35 -75
t22 -55l8 -21q-117 148 -319 148q-49 0 -88 30t-39 76q0 53 33.5 91t93.5 38zM643 1214q38 -37 48.5 -102t-2.5 -131t-31.5 -126.5t-35.5 -98.5l-18 -39q20 191 -125 330q-35 35 -42 81.5t24 83.5q23 23 53 34t65 3.5t64 -35.5z" />
    <glyph glyph-name="parenright" unicode=")" 
d="M207 403q-13 0 -19 -2v-200q4 -2 19 -2q37 0 50 25t13 77q0 54 -13 78t-50 24zM518 330v-49h-82v-78h96v-49h-155v297h155v-52h-96v-69h82zM203 150q-47 0 -74 4v292q61 9 76 9q67 0 96 -37.5t29 -116.5t-29.5 -115t-97.5 -36zM586 451h80l39 -164l38 164h82
q3 -45 13 -297h-60q0 108 -6 213l-41 -168h-55l-41 168h-2q-4 -140 -4 -213h-58q3 156 15 297zM987 150q-60 0 -84 35.5t-24 115.5q0 81 24 117.5t84 36.5t85.5 -37t25.5 -117q0 -79 -25.5 -115t-85.5 -36zM987 403q-29 0 -39 -23.5t-10 -78.5q0 -54 10 -78t39 -24
q30 0 40.5 24t10.5 78q0 55 -10 78.5t-41 23.5zM967 1016q49 0 79.5 -24.5t39 -51t8.5 -53.5q0 -43 -34.5 -72.5t-72.5 -34.5q-213 -23 -340 -147q3 8 9 22t25 53.5t39 75.5t50 80.5t59.5 76t66 53.5t71.5 22zM285 909q39 0 78 -21t69.5 -55t58.5 -74.5t48 -81.5t35 -75
t22 -55l8 -21q-117 148 -319 148q-49 0 -88 30t-39 76q0 53 33.5 91t93.5 38zM643 1214q38 -37 48.5 -102t-2.5 -131t-31.5 -126.5t-35.5 -98.5l-18 -39q20 191 -125 330q-35 35 -42 81.5t24 83.5q23 23 53 34t65 3.5t64 -35.5z" />
    <glyph glyph-name="asterisk" unicode="*" 
d="M207 403q-13 0 -19 -2v-200q4 -2 19 -2q37 0 50 25t13 77q0 54 -13 78t-50 24zM518 330v-49h-82v-78h96v-49h-155v297h155v-52h-96v-69h82zM203 150q-47 0 -74 4v292q61 9 76 9q67 0 96 -37.5t29 -116.5t-29.5 -115t-97.5 -36zM586 451h80l39 -164l38 164h82
q3 -45 13 -297h-60q0 108 -6 213l-41 -168h-55l-41 168h-2q-4 -140 -4 -213h-58q3 156 15 297zM987 150q-60 0 -84 35.5t-24 115.5q0 81 24 117.5t84 36.5t85.5 -37t25.5 -117q0 -79 -25.5 -115t-85.5 -36zM987 403q-29 0 -39 -23.5t-10 -78.5q0 -54 10 -78t39 -24
q30 0 40.5 24t10.5 78q0 55 -10 78.5t-41 23.5zM967 1016q49 0 79.5 -24.5t39 -51t8.5 -53.5q0 -43 -34.5 -72.5t-72.5 -34.5q-213 -23 -340 -147q3 8 9 22t25 53.5t39 75.5t50 80.5t59.5 76t66 53.5t71.5 22zM285 909q39 0 78 -21t69.5 -55t58.5 -74.5t48 -81.5t35 -75
t22 -55l8 -21q-117 148 -319 148q-49 0 -88 30t-39 76q0 53 33.5 91t93.5 38zM643 1214q38 -37 48.5 -102t-2.5 -131t-31.5 -126.5t-35.5 -98.5l-18 -39q20 191 -125 330q-35 35 -42 81.5t24 83.5q23 23 53 34t65 3.5t64 -35.5z" />
    <glyph glyph-name="plus" unicode="+" 
d="M207 403q-13 0 -19 -2v-200q4 -2 19 -2q37 0 50 25t13 77q0 54 -13 78t-50 24zM518 330v-49h-82v-78h96v-49h-155v297h155v-52h-96v-69h82zM203 150q-47 0 -74 4v292q61 9 76 9q67 0 96 -37.5t29 -116.5t-29.5 -115t-97.5 -36zM586 451h80l39 -164l38 164h82
q3 -45 13 -297h-60q0 108 -6 213l-41 -168h-55l-41 168h-2q-4 -140 -4 -213h-58q3 156 15 297zM987 150q-60 0 -84 35.5t-24 115.5q0 81 24 117.5t84 36.5t85.5 -37t25.5 -117q0 -79 -25.5 -115t-85.5 -36zM987 403q-29 0 -39 -23.5t-10 -78.5q0 -54 10 -78t39 -24
q30 0 40.5 24t10.5 78q0 55 -10 78.5t-41 23.5zM967 1016q49 0 79.5 -24.5t39 -51t8.5 -53.5q0 -43 -34.5 -72.5t-72.5 -34.5q-213 -23 -340 -147q3 8 9 22t25 53.5t39 75.5t50 80.5t59.5 76t66 53.5t71.5 22zM285 909q39 0 78 -21t69.5 -55t58.5 -74.5t48 -81.5t35 -75
t22 -55l8 -21q-117 148 -319 148q-49 0 -88 30t-39 76q0 53 33.5 91t93.5 38zM643 1214q38 -37 48.5 -102t-2.5 -131t-31.5 -126.5t-35.5 -98.5l-18 -39q20 191 -125 330q-35 35 -42 81.5t24 83.5q23 23 53 34t65 3.5t64 -35.5z" />
    <glyph glyph-name="comma" unicode="," horiz-adv-x="397" 
d="M125 -172q-5 -1 -6 5q-1 9 6 11q49 13 78.5 59.5t27.5 88.5q-15 -12 -41 -12q-27 0 -46 19.5t-19 49.5q0 28 20.5 47t49.5 19q55 0 72 -59q19 -63 -19 -133q-41 -75 -123 -95z" />
    <glyph glyph-name="hyphen" unicode="-" 
d="M207 403q-13 0 -19 -2v-200q4 -2 19 -2q37 0 50 25t13 77q0 54 -13 78t-50 24zM518 330v-49h-82v-78h96v-49h-155v297h155v-52h-96v-69h82zM203 150q-47 0 -74 4v292q61 9 76 9q67 0 96 -37.5t29 -116.5t-29.5 -115t-97.5 -36zM586 451h80l39 -164l38 164h82
q3 -45 13 -297h-60q0 108 -6 213l-41 -168h-55l-41 168h-2q-4 -140 -4 -213h-58q3 156 15 297zM987 150q-60 0 -84 35.5t-24 115.5q0 81 24 117.5t84 36.5t85.5 -37t25.5 -117q0 -79 -25.5 -115t-85.5 -36zM987 403q-29 0 -39 -23.5t-10 -78.5q0 -54 10 -78t39 -24
q30 0 40.5 24t10.5 78q0 55 -10 78.5t-41 23.5zM967 1016q49 0 79.5 -24.5t39 -51t8.5 -53.5q0 -43 -34.5 -72.5t-72.5 -34.5q-213 -23 -340 -147q3 8 9 22t25 53.5t39 75.5t50 80.5t59.5 76t66 53.5t71.5 22zM285 909q39 0 78 -21t69.5 -55t58.5 -74.5t48 -81.5t35 -75
t22 -55l8 -21q-117 148 -319 148q-49 0 -88 30t-39 76q0 53 33.5 91t93.5 38zM643 1214q38 -37 48.5 -102t-2.5 -131t-31.5 -126.5t-35.5 -98.5l-18 -39q20 191 -125 330q-35 35 -42 81.5t24 83.5q23 23 53 34t65 3.5t64 -35.5z" />
    <glyph glyph-name="period" unicode="." horiz-adv-x="434" 
d="M217 -20q-28 0 -47.5 20t-19.5 49q0 27 20 46.5t47 19.5q28 0 48 -20t20 -46q0 -29 -20 -49t-48 -20z" />
    <glyph glyph-name="slash" unicode="/" 
d="M207 403q-13 0 -19 -2v-200q4 -2 19 -2q37 0 50 25t13 77q0 54 -13 78t-50 24zM518 330v-49h-82v-78h96v-49h-155v297h155v-52h-96v-69h82zM203 150q-47 0 -74 4v292q61 9 76 9q67 0 96 -37.5t29 -116.5t-29.5 -115t-97.5 -36zM586 451h80l39 -164l38 164h82
q3 -45 13 -297h-60q0 108 -6 213l-41 -168h-55l-41 168h-2q-4 -140 -4 -213h-58q3 156 15 297zM987 150q-60 0 -84 35.5t-24 115.5q0 81 24 117.5t84 36.5t85.5 -37t25.5 -117q0 -79 -25.5 -115t-85.5 -36zM987 403q-29 0 -39 -23.5t-10 -78.5q0 -54 10 -78t39 -24
q30 0 40.5 24t10.5 78q0 55 -10 78.5t-41 23.5zM967 1016q49 0 79.5 -24.5t39 -51t8.5 -53.5q0 -43 -34.5 -72.5t-72.5 -34.5q-213 -23 -340 -147q3 8 9 22t25 53.5t39 75.5t50 80.5t59.5 76t66 53.5t71.5 22zM285 909q39 0 78 -21t69.5 -55t58.5 -74.5t48 -81.5t35 -75
t22 -55l8 -21q-117 148 -319 148q-49 0 -88 30t-39 76q0 53 33.5 91t93.5 38zM643 1214q38 -37 48.5 -102t-2.5 -131t-31.5 -126.5t-35.5 -98.5l-18 -39q20 191 -125 330q-35 35 -42 81.5t24 83.5q23 23 53 34t65 3.5t64 -35.5z" />
    <glyph glyph-name="zero" unicode="0" horiz-adv-x="1484" 
d="M133 748q0 231 73 404.5t211.5 268.5t325.5 95q133 0 246.5 -55t193.5 -154t125.5 -243t45.5 -316t-45.5 -316t-125.5 -243t-193.5 -154t-246.5 -55q-187 0 -325.5 95t-211.5 268.5t-73 404.5zM193 748q0 -336 147 -536t403 -200q161 0 286 90.5t195 258.5t70 387
t-70 386.5t-195 258t-286 90.5q-256 0 -403 -199.5t-147 -535.5z" />
    <glyph glyph-name="one" unicode="1" horiz-adv-x="937" 
d="M913 23q7 -1 7 -12t-7 -11h-809q-8 0 -8 11t8 12l320 10q76 5 76 51v1364l-387 -152q-4 -2 -8 4.5t-4 13t5 9.5l431 172q22 7 22 -16v-1395q0 -46 76 -51z" />
    <glyph glyph-name="two" unicode="2" horiz-adv-x="1329" 
d="M115 1116q-10 185 134.5 292.5t377.5 107.5q237 0 382.5 -109t145.5 -295q0 -77 -28 -144t-77 -120t-113.5 -101.5t-139.5 -94t-152.5 -91.5t-155 -100.5t-144.5 -113.5t-124 -137.5t-90 -166.5h899q109 0 119 102l22 211q1 8 12 8t11 -8l-10 -336q0 -20 -21 -20h-1030
q-33 0 -33 25q0 8 9 32q33 89 88 167.5t119.5 137.5t139.5 113t149.5 99.5t146.5 90t134 92t109 99t74 116.5t27 140q0 165 -125 268t-344 103q-208 0 -341.5 -95.5t-125.5 -220.5q30 6 48.5 -11.5t18.5 -43.5q0 -25 -14.5 -41t-38.5 -16q-27 0 -42 17t-17 44z" />
    <glyph glyph-name="three" unicode="3" horiz-adv-x="1345" 
d="M1217 399q1 -193 -150 -305t-405 -112q-250 0 -400.5 103.5t-150.5 274.5q0 28 14.5 46t40.5 18t40.5 -15.5t14.5 -39.5q0 -22 -19 -39t-48 -17q1 -43 23 -86t66 -82.5t103 -69.5t141.5 -46.5t174.5 -14.5q225 0 360.5 104.5t134.5 280.5q-2 149 -136 245.5t-347 96.5
h-146q-9 0 -9 17.5t9 17.5h146q122 0 224 52.5t157.5 132.5t56.5 167q2 160 -115.5 257t-330.5 98q-205 0 -328 -90t-133 -217q34 6 52.5 -12.5t18.5 -43.5t-14 -40t-39 -15q-27 0 -42 17t-17 44q-10 174 134 282t368 108q233 -2 369.5 -104.5t135.5 -276.5
q-2 -123 -112 -237t-275 -138q190 -12 310.5 -117t122.5 -244z" />
    <glyph glyph-name="four" unicode="4" 
d="M207 403q-13 0 -19 -2v-200q4 -2 19 -2q37 0 50 25t13 77q0 54 -13 78t-50 24zM518 330v-49h-82v-78h96v-49h-155v297h155v-52h-96v-69h82zM203 150q-47 0 -74 4v292q61 9 76 9q67 0 96 -37.5t29 -116.5t-29.5 -115t-97.5 -36zM586 451h80l39 -164l38 164h82
q3 -45 13 -297h-60q0 108 -6 213l-41 -168h-55l-41 168h-2q-4 -140 -4 -213h-58q3 156 15 297zM987 150q-60 0 -84 35.5t-24 115.5q0 81 24 117.5t84 36.5t85.5 -37t25.5 -117q0 -79 -25.5 -115t-85.5 -36zM987 403q-29 0 -39 -23.5t-10 -78.5q0 -54 10 -78t39 -24
q30 0 40.5 24t10.5 78q0 55 -10 78.5t-41 23.5zM967 1016q49 0 79.5 -24.5t39 -51t8.5 -53.5q0 -43 -34.5 -72.5t-72.5 -34.5q-213 -23 -340 -147q3 8 9 22t25 53.5t39 75.5t50 80.5t59.5 76t66 53.5t71.5 22zM285 909q39 0 78 -21t69.5 -55t58.5 -74.5t48 -81.5t35 -75
t22 -55l8 -21q-117 148 -319 148q-49 0 -88 30t-39 76q0 53 33.5 91t93.5 38zM643 1214q38 -37 48.5 -102t-2.5 -131t-31.5 -126.5t-35.5 -98.5l-18 -39q20 191 -125 330q-35 35 -42 81.5t24 83.5q23 23 53 34t65 3.5t64 -35.5z" />
    <glyph glyph-name="five" unicode="5" horiz-adv-x="1282" 
d="M1180 438q1 -196 -152 -326t-381 -132q-256 -1 -400.5 104t-144.5 276q0 28 15.5 46t42.5 18q25 0 39 -15t14 -40q0 -32 -25.5 -47.5t-48.5 -4.5q23 -139 149 -222t359 -83q200 0 337 121t136 305q-1 193 -125 303.5t-331 110.5q-125 0 -220 -29.5t-198 -109.5
q-9 -9 -23 -4l-16 6q-17 7 -14 28l73 730q1 11 16 16.5t29 5.5l756 -2q20 0 20 -20v-15q0 -20 -20 -20l-764 2l-72 -695q109 79 207 109.5t226 30.5q235 0 375 -118t141 -329z" />
    <glyph glyph-name="six" unicode="6" horiz-adv-x="1308" 
d="M682 877q130 -1 229.5 -35.5t160 -97t90.5 -143.5t30 -179q0 -191 -141.5 -317t-366.5 -125q-271 -1 -410 197t-139 550q0 239 68 415t205.5 275t332.5 99q184 0 285.5 -86t87.5 -213q-7 -62 -59 -62q-22 0 -38 15.5t-16 39.5q0 30 25 46.5t53 5.5q-2 90 -92 155.5
t-248 65.5q-176 0 -300 -97.5t-184 -266t-60 -392.5q0 -75 6 -145q42 133 179.5 215t301.5 80zM686 12q199 0 323 117.5t124 292.5q0 190 -113 306t-344 116q-115 0 -220 -44t-173 -126.5t-70 -184.5q39 -229 158 -353t315 -124z" />
    <glyph glyph-name="seven" unicode="7" horiz-adv-x="1138" 
d="M1079 1468q3 -12 -4 -26l-583 -1426q-5 -16 -23 -16h-20q-11 0 -16 7.5t-1 17.5l612 1421h-991q-20 0 -20 20v9q0 20 20 20h1002q19 0 22 -18z" />
    <glyph glyph-name="eight" unicode="8" horiz-adv-x="1355" 
d="M852 805q184 -34 282.5 -138t98.5 -264q0 -186 -152.5 -304.5t-402.5 -118.5t-402.5 118.5t-152.5 304.5q0 160 98.5 264t282.5 138q-144 33 -217.5 121t-73.5 217q0 165 125.5 269t339.5 104t340.5 -104.5t126.5 -268.5q0 -128 -74.5 -216.5t-218.5 -121.5zM270 1143
q0 -141 105.5 -232.5t302.5 -91.5t303 91.5t106 232.5q0 143 -112 241.5t-297 98.5t-296.5 -98.5t-111.5 -241.5zM678 12q221 0 358.5 112t137.5 279q0 175 -130.5 279t-365.5 104t-365.5 -104t-130.5 -279q0 -167 137.5 -279t358.5 -112z" />
    <glyph glyph-name="nine" unicode="9" horiz-adv-x="1296" 
d="M621 1516q94 0 172 -24t147 -80t116.5 -142.5t74.5 -219t26 -302.5q-1 -135 -17 -245.5t-56.5 -210t-104 -166.5t-162.5 -106.5t-229 -39.5q-101 0 -181 25t-127 65.5t-67.5 92t-11.5 105.5q10 60 61 60q24 0 38.5 -15.5t14.5 -40.5q0 -28 -22.5 -42.5t-52.5 -8.5
q-5 -30 15 -65t60.5 -67.5t112.5 -53.5t160 -21q119 0 209 38.5t146.5 103t91.5 161t48.5 200t14.5 231.5q0 48 -4 126q-21 -79 -74 -138.5t-123 -93.5t-145 -50.5t-152 -16.5q-219 0 -349 131.5t-130 331.5q0 107 42 198t111.5 151.5t159.5 94.5t187 34zM604 608
q65 0 129.5 12.5t128.5 42.5t112.5 73.5t78 111t28.5 149.5q-69 486 -463 486q-113 0 -211.5 -54t-161.5 -157.5t-63 -233.5q0 -117 49 -214t146.5 -156.5t226.5 -59.5z" />
    <glyph glyph-name="colon" unicode=":" horiz-adv-x="450" 
d="M225 762q-28 0 -47.5 20t-19.5 49q0 27 20 46.5t47 19.5q28 0 48 -20t20 -46q0 -29 -20 -49t-48 -20zM225 -20q-28 0 -47.5 20t-19.5 49q0 27 20 46.5t47 19.5q28 0 48 -20t20 -46q0 -29 -20 -49t-48 -20z" />
    <glyph glyph-name="semicolon" unicode=";" horiz-adv-x="479" 
d="M240 760q-30 0 -50 20t-20 51q0 28 20.5 48t49.5 20t49 -20t20 -48q0 -31 -20 -51t-49 -20zM168 -152q-6 0 -6 7.5t6 7.5q48 0 78 43t28 86q-15 -12 -41 -12q-27 0 -46 19.5t-19 49.5q0 28 20.5 47t49.5 19q53 0 71 -59q19 -62 -13 -127q-44 -79 -128 -81z" />
    <glyph glyph-name="less" unicode="&#x3c;" 
d="M207 403q-13 0 -19 -2v-200q4 -2 19 -2q37 0 50 25t13 77q0 54 -13 78t-50 24zM518 330v-49h-82v-78h96v-49h-155v297h155v-52h-96v-69h82zM203 150q-47 0 -74 4v292q61 9 76 9q67 0 96 -37.5t29 -116.5t-29.5 -115t-97.5 -36zM586 451h80l39 -164l38 164h82
q3 -45 13 -297h-60q0 108 -6 213l-41 -168h-55l-41 168h-2q-4 -140 -4 -213h-58q3 156 15 297zM987 150q-60 0 -84 35.5t-24 115.5q0 81 24 117.5t84 36.5t85.5 -37t25.5 -117q0 -79 -25.5 -115t-85.5 -36zM987 403q-29 0 -39 -23.5t-10 -78.5q0 -54 10 -78t39 -24
q30 0 40.5 24t10.5 78q0 55 -10 78.5t-41 23.5zM967 1016q49 0 79.5 -24.5t39 -51t8.5 -53.5q0 -43 -34.5 -72.5t-72.5 -34.5q-213 -23 -340 -147q3 8 9 22t25 53.5t39 75.5t50 80.5t59.5 76t66 53.5t71.5 22zM285 909q39 0 78 -21t69.5 -55t58.5 -74.5t48 -81.5t35 -75
t22 -55l8 -21q-117 148 -319 148q-49 0 -88 30t-39 76q0 53 33.5 91t93.5 38zM643 1214q38 -37 48.5 -102t-2.5 -131t-31.5 -126.5t-35.5 -98.5l-18 -39q20 191 -125 330q-35 35 -42 81.5t24 83.5q23 23 53 34t65 3.5t64 -35.5z" />
    <glyph glyph-name="equal" unicode="=" 
d="M207 403q-13 0 -19 -2v-200q4 -2 19 -2q37 0 50 25t13 77q0 54 -13 78t-50 24zM518 330v-49h-82v-78h96v-49h-155v297h155v-52h-96v-69h82zM203 150q-47 0 -74 4v292q61 9 76 9q67 0 96 -37.5t29 -116.5t-29.5 -115t-97.5 -36zM586 451h80l39 -164l38 164h82
q3 -45 13 -297h-60q0 108 -6 213l-41 -168h-55l-41 168h-2q-4 -140 -4 -213h-58q3 156 15 297zM987 150q-60 0 -84 35.5t-24 115.5q0 81 24 117.5t84 36.5t85.5 -37t25.5 -117q0 -79 -25.5 -115t-85.5 -36zM987 403q-29 0 -39 -23.5t-10 -78.5q0 -54 10 -78t39 -24
q30 0 40.5 24t10.5 78q0 55 -10 78.5t-41 23.5zM967 1016q49 0 79.5 -24.5t39 -51t8.5 -53.5q0 -43 -34.5 -72.5t-72.5 -34.5q-213 -23 -340 -147q3 8 9 22t25 53.5t39 75.5t50 80.5t59.5 76t66 53.5t71.5 22zM285 909q39 0 78 -21t69.5 -55t58.5 -74.5t48 -81.5t35 -75
t22 -55l8 -21q-117 148 -319 148q-49 0 -88 30t-39 76q0 53 33.5 91t93.5 38zM643 1214q38 -37 48.5 -102t-2.5 -131t-31.5 -126.5t-35.5 -98.5l-18 -39q20 191 -125 330q-35 35 -42 81.5t24 83.5q23 23 53 34t65 3.5t64 -35.5z" />
    <glyph glyph-name="greater" unicode="&#x3e;" 
d="M207 403q-13 0 -19 -2v-200q4 -2 19 -2q37 0 50 25t13 77q0 54 -13 78t-50 24zM518 330v-49h-82v-78h96v-49h-155v297h155v-52h-96v-69h82zM203 150q-47 0 -74 4v292q61 9 76 9q67 0 96 -37.5t29 -116.5t-29.5 -115t-97.5 -36zM586 451h80l39 -164l38 164h82
q3 -45 13 -297h-60q0 108 -6 213l-41 -168h-55l-41 168h-2q-4 -140 -4 -213h-58q3 156 15 297zM987 150q-60 0 -84 35.5t-24 115.5q0 81 24 117.5t84 36.5t85.5 -37t25.5 -117q0 -79 -25.5 -115t-85.5 -36zM987 403q-29 0 -39 -23.5t-10 -78.5q0 -54 10 -78t39 -24
q30 0 40.5 24t10.5 78q0 55 -10 78.5t-41 23.5zM967 1016q49 0 79.5 -24.5t39 -51t8.5 -53.5q0 -43 -34.5 -72.5t-72.5 -34.5q-213 -23 -340 -147q3 8 9 22t25 53.5t39 75.5t50 80.5t59.5 76t66 53.5t71.5 22zM285 909q39 0 78 -21t69.5 -55t58.5 -74.5t48 -81.5t35 -75
t22 -55l8 -21q-117 148 -319 148q-49 0 -88 30t-39 76q0 53 33.5 91t93.5 38zM643 1214q38 -37 48.5 -102t-2.5 -131t-31.5 -126.5t-35.5 -98.5l-18 -39q20 191 -125 330q-35 35 -42 81.5t24 83.5q23 23 53 34t65 3.5t64 -35.5z" />
    <glyph glyph-name="question" unicode="?" horiz-adv-x="1179" 
d="M72 1114q-6 109 57.5 201.5t179 146.5t254.5 54q218 0 357 -123.5t139 -331.5q0 -91 -29.5 -170t-86.5 -141.5t-149 -99.5t-208 -40l-15 -338q0 -6 -11 -6t-11 6l-17 346q0 10 7 17.5t18 7.5h10q90 0 163.5 23t122.5 62t82.5 93t48.5 114t15 126q0 188 -123 305t-313 117
q-96 0 -182 -29t-143.5 -75.5t-91 -104.5t-33.5 -117q35 6 53 -9t18 -40t-14 -40t-39 -15q-27 0 -42 17t-17 44zM559 -20q-28 0 -47.5 20t-19.5 49q0 27 20 46.5t47 19.5q28 0 48 -20t20 -46q0 -29 -20 -49t-48 -20z" />
    <glyph glyph-name="at" unicode="@" 
d="M207 403q-13 0 -19 -2v-200q4 -2 19 -2q37 0 50 25t13 77q0 54 -13 78t-50 24zM518 330v-49h-82v-78h96v-49h-155v297h155v-52h-96v-69h82zM203 150q-47 0 -74 4v292q61 9 76 9q67 0 96 -37.5t29 -116.5t-29.5 -115t-97.5 -36zM586 451h80l39 -164l38 164h82
q3 -45 13 -297h-60q0 108 -6 213l-41 -168h-55l-41 168h-2q-4 -140 -4 -213h-58q3 156 15 297zM987 150q-60 0 -84 35.5t-24 115.5q0 81 24 117.5t84 36.5t85.5 -37t25.5 -117q0 -79 -25.5 -115t-85.5 -36zM987 403q-29 0 -39 -23.5t-10 -78.5q0 -54 10 -78t39 -24
q30 0 40.5 24t10.5 78q0 55 -10 78.5t-41 23.5zM967 1016q49 0 79.5 -24.5t39 -51t8.5 -53.5q0 -43 -34.5 -72.5t-72.5 -34.5q-213 -23 -340 -147q3 8 9 22t25 53.5t39 75.5t50 80.5t59.5 76t66 53.5t71.5 22zM285 909q39 0 78 -21t69.5 -55t58.5 -74.5t48 -81.5t35 -75
t22 -55l8 -21q-117 148 -319 148q-49 0 -88 30t-39 76q0 53 33.5 91t93.5 38zM643 1214q38 -37 48.5 -102t-2.5 -131t-31.5 -126.5t-35.5 -98.5l-18 -39q20 191 -125 330q-35 35 -42 81.5t24 83.5q23 23 53 34t65 3.5t64 -35.5z" />
    <glyph glyph-name="A" unicode="A" horiz-adv-x="1755" 
d="M1786 23q8 0 8 -11.5t-8 -11.5h-569q-7 0 -7 11.5t7 11.5l196 10q29 1 40 13t3 30l-151 362h-865l-157 -370q-8 -14 -0.5 -21.5t15.5 -10t24 -3.5l172 -10q9 0 8.5 -11.5t-8.5 -11.5h-519q-7 0 -7 11.5t7 11.5l197 10q29 2 46 10t28 31l577 1349q4 21 -8 29t-37 10
l-217 11q-7 1 -7 11.5t7 10.5h342q19 0 27 -18l594 -1407q13 -33 71 -37zM455 471h835l-413 989z" />
    <glyph glyph-name="B" unicode="B" horiz-adv-x="1634" 
d="M82 0q-8 0 -8 11t8 12l176 10q76 5 76 51v1327q0 46 -76 51l-176 11q-8 1 -8 11.5t8 10.5h887q224 0 348.5 -93t124.5 -284q0 -118 -87.5 -211.5t-238.5 -128.5q61 -8 114.5 -23.5t107 -46t91 -72.5t61 -106t23.5 -143t-29.5 -147.5t-87 -122.5t-154 -85.5t-220.5 -31.5
h-940zM393 795h570q190 0 304.5 93.5t114.5 229.5q0 171 -109 257.5t-304 86.5h-531q-21 0 -33 -13.5t-12 -35.5v-618zM393 82q0 -22 12 -35.5t33 -13.5h584q108 0 193.5 31t136 82t76.5 112.5t26 128.5q0 77 -24 139t-66 101t-91 66t-107.5 40.5t-106.5 19t-96 5.5h-570
v-676z" />
    <glyph glyph-name="C" unicode="C" horiz-adv-x="1662" 
d="M893 1516q139 0 266 -47.5t215 -125t138 -180t44 -209.5q-3 -59 -57 -59q-22 0 -36.5 17t-14.5 38q0 25 20.5 41.5t55.5 9.5q-10 94 -61.5 181.5t-132.5 154t-195 106.5t-242 40q-152 0 -283.5 -53t-227 -147.5t-150 -233t-54.5 -301.5t54.5 -301.5t149.5 -233.5
t226 -148t281 -53q225 0 398.5 126.5t228.5 332.5q3 16 19 14q14 -1 11 -14q-37 -139 -124 -248.5t-226 -176t-307 -66.5q-220 0 -393.5 91.5t-275 267.5t-101.5 409t101.5 409t276.5 267.5t396 91.5z" />
    <glyph glyph-name="D" unicode="D" horiz-adv-x="1738" 
d="M82 0q-8 0 -8 11t8 12l176 10q76 5 76 51v1327q0 46 -76 51l-176 11q-8 1 -8 11.5t8 10.5h784q166 0 302.5 -47.5t236.5 -139t155.5 -234.5t55.5 -326t-55.5 -326.5t-155.5 -235t-236.5 -139t-302.5 -47.5h-784zM393 82q0 -22 12 -35.5t33 -13.5h428q152 0 278 47
t218 135.5t143 225t51 307.5q0 227 -89 390t-243 243.5t-358 80.5h-428q-21 0 -33 -13.5t-12 -35.5v-1331z" />
    <glyph glyph-name="E" unicode="E" horiz-adv-x="1435" 
d="M80 0q-8 0 -8 11t8 12l176 10q76 5 76 51v1327q0 46 -76 51l-156 11q-8 1 -8 11.5t8 10.5h1172q10 0 17 -7t7 -18v-325q0 -7 -10 -7t-12 7l-23 237q-4 43 -21.5 59.5t-47.5 16.5h-746q-45 0 -45 -45v-653h688q12 0 12 -18.5t-12 -18.5h-688v-641q0 -45 45 -45h770
q31 0 50.5 21t21.5 55l16 237q2 8 12.5 8t10.5 -8v-325q0 -11 -7.5 -18t-17.5 -7h-1212z" />
    <glyph glyph-name="F" unicode="F" horiz-adv-x="1447" 
d="M80 0q-8 0 -8 11t8 12l176 10q76 5 76 51v1327q0 46 -76 51l-156 11q-8 1 -8 11.5t8 10.5h1225q11 0 18 -7.5t7 -17.5v-325q0 -7 -13 -7t-14 7l-12 237q-3 76 -70 76h-805q-45 0 -45 -45v-653h688q12 0 12 -18.5t-12 -18.5h-688v-639q0 -46 76 -51l197 -10q8 -1 8 -12
t-8 -11h-584z" />
    <glyph glyph-name="G" unicode="G" horiz-adv-x="1708" 
d="M1548 627q10 0 17.5 -7.5t7.5 -17.5v-602q0 -12 -13.5 -12t-13.5 12l-20 383q-57 -188 -227 -295.5t-414 -107.5q-168 0 -310.5 55.5t-242.5 155t-156.5 243t-56.5 314.5q0 233 101 409t273.5 267.5t391.5 91.5q136 0 261 -44t214 -116.5t139.5 -170t44.5 -200.5
q-3 -63 -59 -63q-20 0 -34.5 15.5t-14.5 37.5q0 27 20.5 44t54.5 7q-2 79 -50.5 160.5t-129.5 147.5t-199 107.5t-247 41.5q-149 0 -279.5 -53t-224.5 -147.5t-148.5 -233t-54.5 -301.5t54.5 -301t148.5 -233t224.5 -148.5t279.5 -53.5q186 0 329.5 66t224 189t81.5 286v37
h-598q-10 0 -10 18.5t10 18.5h626z" />
    <glyph glyph-name="H" unicode="H" horiz-adv-x="1910" 
d="M82 0q-8 0 -8 11t8 12l176 10q76 5 76 51v1327q0 46 -76 51l-176 11q-8 1 -8 11.5t8 10.5h563q7 0 7 -10.5t-7 -11.5l-176 -11q-76 -5 -76 -51v-641h1125v641q0 46 -76 51l-176 11q-8 1 -8 11.5t8 10.5h563q7 0 7 -10.5t-7 -11.5l-176 -11q-76 -5 -76 -51v-1327
q0 -46 76 -51l176 -10q7 -1 7 -12t-7 -11h-563q-8 0 -8 11t8 12l176 10q76 5 76 51v653h-1125v-653q0 -46 76 -51l176 -10q7 -1 7 -12t-7 -11h-563z" />
    <glyph glyph-name="I" unicode="I" horiz-adv-x="727" 
d="M82 0q-8 0 -8 11t8 12l176 10q76 5 76 51v1327q0 46 -76 51l-176 11q-8 1 -8 11.5t8 10.5h563q7 0 7 -10.5t-7 -11.5l-176 -11q-76 -5 -76 -51v-1327q0 -46 76 -51l176 -10q7 -1 7 -12t-7 -11h-563z" />
    <glyph glyph-name="J" unicode="J" horiz-adv-x="1353" 
d="M61 397q0 30 16.5 49t41.5 19t39 -14t14 -39q0 -30 -23.5 -46.5t-50.5 -5.5q7 -64 42.5 -124.5t96 -111.5t154 -81.5t205.5 -30.5q212 0 336.5 128t124.5 358l2 964h-615q-6 0 -6 16.5t6 16.5h650q10 0 17 -7t7 -18l-2 -972q0 -237 -136.5 -377.5t-383.5 -140.5
q-237 0 -386 120.5t-149 296.5z" />
    <glyph glyph-name="K" unicode="K" horiz-adv-x="1714" 
d="M1667 23q7 -1 7 -12t-7 -11h-254q-18 0 -29 14l-608 820l-383 -381v-369q0 -46 76 -51l176 -10q7 -1 7 -12t-7 -11h-563q-8 0 -8 11t8 12l176 10q76 5 76 51v1327q0 46 -76 51l-176 11q-8 1 -8 11.5t8 10.5h563q7 0 7 -10.5t-7 -11.5l-176 -11q-76 -5 -76 -51v-905
l916 911q15 13 6.5 28.5t-37.5 16.5l-221 11q-7 1 -7 11.5t7 10.5h612q7 0 7 -10.5t-7 -11.5l-178 -11q-93 -7 -137 -51l-537 -534l596 -803q30 -38 78 -41z" />
    <glyph glyph-name="L" unicode="L" horiz-adv-x="1343" 
d="M80 0q-8 0 -8 11t8 12l176 10q76 5 76 51v1327q0 46 -76 51l-156 11q-8 1 -8 11.5t8 10.5h523q7 0 7 -10.5t-7 -11.5l-156 -11q-76 -5 -76 -51v-1329q0 -45 45 -45h686q38 0 64 37.5t31 99.5l16 176q1 8 11.5 8t10.5 -8v-325q0 -11 -7 -18t-17 -7h-1151z" />
    <glyph glyph-name="M" unicode="M" horiz-adv-x="2109" 
d="M57 0q-7 0 -7 11.5t7 11.5l168 10q73 7 76 47l100 1313q6 66 -67 69l-217 11q-7 1 -7 11.5t7 10.5h323q22 0 35 -20l580 -994l587 998q11 16 29 16h330q7 0 7 -11t-7 -11l-217 -11q-75 -3 -70 -80l92 -1300q2 -24 14 -36t42 -13l188 -10q8 0 8 -11.5t-8 -11.5h-532
q-8 0 -8.5 11.5t8.5 11.5l192 10q24 2 32 12t7 37l-96 1348l-594 -1008q-3 -4 -17.5 -4t-17.5 4l-584 995l-100 -1335q-3 -46 39 -49l192 -10q9 0 8.5 -11.5t-8.5 -11.5h-514z" />
    <glyph glyph-name="N" unicode="N" horiz-adv-x="1878" 
d="M82 0q-8 0 -8 11t8 12l176 10q76 5 76 51v1327q0 46 -76 51l-176 11q-8 1 -8 11.5t8 10.5h289q19 0 30 -14l1123 -1393v1323q0 46 -76 51l-176 11q-8 1 -8 11.5t8 10.5h543q7 0 7 -10.5t-7 -11.5l-177 -11q-75 -5 -75 -51v-1403q0 -11 -7.5 -15t-17 -1.5t-14.5 8.5
l-1151 1421v-1337q0 -46 76 -51l176 -10q7 -1 7 -12t-7 -11h-543z" />
    <glyph glyph-name="O" unicode="O" horiz-adv-x="1781" 
d="M119 748q0 233 102 409t276 267.5t394 91.5t394 -91.5t276 -267.5t102 -409t-102 -409t-276 -267.5t-394 -91.5t-394 91.5t-276 267.5t-102 409zM178 748q0 -163 55 -301.5t150.5 -233.5t226.5 -148t281 -53t281 53t226.5 148t150.5 233.5t55 301.5t-55 301.5t-150.5 233
t-226.5 147.5t-281 53t-281 -53t-226.5 -147.5t-150.5 -233t-55 -301.5z" />
    <glyph glyph-name="P" unicode="P" horiz-adv-x="1581" 
d="M82 0q-8 0 -8 11t8 12l176 10q76 5 76 51v1327q0 46 -76 51l-176 11q-8 1 -8 11.5t8 10.5h788q292 0 459.5 -126.5t167.5 -375.5q0 -238 -169.5 -369.5t-457.5 -131.5h-477v-408q0 -46 76 -51l176 -10q7 -1 7 -12t-7 -11h-563zM393 524h477q260 0 414 123.5t154 345.5
q0 234 -151.5 351.5t-416.5 117.5h-432q-45 0 -45 -45v-893z" />
    <glyph glyph-name="Q" unicode="Q" horiz-adv-x="1781" 
d="M1763 -111q25 -1 35 -22.5t0 -44.5q-22 -56 -100.5 -93.5t-229.5 -37.5q-174 0 -334.5 87t-248.5 202q-162 1 -302.5 55t-243.5 151t-161.5 242.5t-58.5 319.5q0 233 102 409t276 267.5t394 91.5t394 -91.5t276 -267.5t102 -409q0 -169 -55 -311t-152.5 -239t-230.5 -153
t-289 -63q97 -118 240 -188t297 -70q93 0 171 23t103 58q-12 3 -20.5 16t-8.5 27q4 44 45 41zM178 748q0 -163 55 -301.5t150.5 -233.5t226.5 -148t281 -53t281 53t226.5 148t150.5 233.5t55 301.5t-55 301.5t-150.5 233t-226.5 147.5t-281 53t-281 -53t-226.5 -147.5
t-150.5 -233t-55 -301.5z" />
    <glyph glyph-name="R" unicode="R" horiz-adv-x="1630" 
d="M1583 23q7 -1 7 -12t-7 -11h-260q-18 0 -29 14l-448 547h-453v-477q0 -46 76 -51l176 -10q7 -1 7 -12t-7 -11h-563q-8 0 -8 11t8 12l176 10q76 5 76 51v1327q0 46 -76 51l-176 11q-8 1 -8 11.5t8 10.5h774q602 0 602 -475q0 -130 -71.5 -231.5t-192.5 -158.5t-274 -67
l401 -489q30 -38 78 -41zM393 1417v-823h463q149 0 272.5 51t198 149.5t74.5 225.5q0 123 -42.5 211t-120 137.5t-172 71.5t-212.5 22h-416q-45 0 -45 -45z" />
    <glyph glyph-name="S" unicode="S" horiz-adv-x="1392" 
d="M100 317q0 28 16 45t44 17q21 0 37 -15t16 -40q0 -30 -20.5 -45t-47.5 -9q11 -103 163 -179.5t390 -76.5q254 0 394.5 103t140.5 272q0 73 -30 128t-74.5 88t-117 58t-137 38.5t-154.5 28.5q-80 13 -121 21t-111.5 25.5t-109 35.5t-88 48.5t-74.5 67t-43.5 89
t-18.5 116.5q0 169 145.5 276t413.5 107q148 0 264 -41.5t183.5 -128t60.5 -205.5q-2 -26 -18.5 -44t-41.5 -18q-24 0 -39.5 16t-15.5 42q0 25 21.5 40.5t54.5 8.5q3 79 -54.5 146.5t-167 109t-247.5 41.5q-245 0 -373.5 -98.5t-128.5 -251.5q0 -85 37 -146t99.5 -95.5
t143.5 -57.5t170 -38t178.5 -30.5t170.5 -42t143.5 -65.5t99.5 -107t37 -162q0 -179 -157 -293t-435 -114q-266 0 -432 90t-166 245z" />
    <glyph glyph-name="T" unicode="T" horiz-adv-x="1470" 
d="M1389 1475l6 -265q0 -8 -10.5 -8t-12.5 8l-20 176q-2 19 -4 27t-8.5 22.5t-20 20.5t-35.5 6h-520v-1378q0 -46 76 -51l176 -10q8 -1 8 -12t-8 -11h-563q-7 0 -7 11t7 12l176 10q76 5 76 51v1378h-517q-22 0 -35.5 -6t-20 -21t-8 -22t-3.5 -27l-25 -176q-2 -8 -12 -8
t-10 8l10 265q0 20 20 20h1264q21 0 21 -20z" />
    <glyph glyph-name="U" unicode="U" horiz-adv-x="1792" 
d="M49 1473q-7 1 -7 11.5t7 10.5h563q8 0 8 -10.5t-8 -11.5l-176 -11q-76 -5 -76 -51v-766q0 -310 145 -471.5t394 -161.5q122 0 222 40t173 117t113.5 198.5t40.5 277.5v766q0 46 -76 51l-176 11q-8 1 -8 11.5t8 10.5h545q7 0 7 -10.5t-7 -11.5l-176 -11q-76 -5 -76 -51
v-766q0 -317 -159 -491t-431 -174q-273 0 -435.5 174.5t-162.5 490.5v766q0 46 -76 51z" />
    <glyph glyph-name="V" unicode="V" horiz-adv-x="1738" 
d="M-43 1473q-7 0 -7 11t7 11h567q8 0 8 -11t-8 -11l-196 -11q-58 -3 -39 -45l604 -1358l555 1356q17 44 -33 47l-172 11q-9 0 -8.5 11t8.5 11h514q7 0 7 -11t-7 -11l-196 -11q-31 -2 -46.5 -12t-27.5 -37l-578 -1401q-5 -12 -20 -12h-4q-22 0 -27 12l-637 1409
q-16 37 -74 41z" />
    <glyph glyph-name="W" unicode="W" horiz-adv-x="2258" 
d="M-33 1473q-7 0 -7 11t7 11h549q8 0 8 -11t-8 -11l-197 -11q-26 -2 -41.5 -13.5t-11.5 -29.5l379 -1372l473 1067q8 16 23 16h10q15 0 23 -16l462 -1063l373 1366q4 19 -9.5 31t-35.5 14l-172 11q-9 0 -8.5 11t8.5 11h492q8 0 8 -11t-8 -11l-177 -11q-51 -3 -63 -49
l-371 -1393q-6 -20 -28 -20h-17q-25 0 -33 18l-458 1051l-457 -1051q-8 -18 -29 -18h-24q-22 0 -29 20l-395 1395q-6 23 -22 33.5t-52 13.5z" />
    <glyph glyph-name="X" unicode="X" horiz-adv-x="1703" 
d="M1659 23q7 0 7 -11.5t-7 -11.5h-572q-7 0 -7 11.5t7 11.5l189 10q29 2 40.5 13.5t-3.5 37.5l-471 637l-488 -633q-17 -23 -6.5 -38t35.5 -17l197 -10q8 0 8 -11.5t-8 -11.5h-549q-7 0 -7 11.5t7 11.5l176 10q63 4 100 51l514 664l-491 667q-21 26 -41.5 35.5t-52.5 11.5
l-177 11q-7 0 -7 11t7 11h570q7 0 7 -11t-7 -11l-189 -11q-30 -1 -39.5 -17t5.5 -36l460 -623l484 635q12 15 1.5 27.5t-40.5 13.5l-197 11q-8 0 -8 11t8 11h547q7 0 7 -11t-7 -11l-176 -11q-64 -3 -90 -39l-508 -663l491 -666q41 -57 105 -61z" />
    <glyph glyph-name="Y" unicode="Y" horiz-adv-x="1576" 
d="M-25 1473q-7 0 -7 11t7 11h549q8 0 8 -11t-8 -11l-176 -11q-63 -4 -37 -49l490 -792l469 792q15 28 6.5 37.5t-41.5 11.5l-176 11q-7 0 -7 11t7 11h522q7 0 7 -11t-7 -11l-176 -11q-60 -4 -90 -51l-492 -825v-502q0 -46 76 -51l176 -10q7 -1 7 -12t-7 -11h-563
q-8 0 -8 11t8 12l176 10q76 5 76 51v494l-522 837q-29 43 -90 47z" />
    <glyph glyph-name="Z" unicode="Z" horiz-adv-x="1443" 
d="M1360 285q2 7 12 7t10 -7l-10 -252v-17q0 -16 -16 -16h-1250q-16 0 -16 14v2q0 9 8 21l1125 1425h-940q-72 0 -102 -28t-36 -88l-16 -136q-1 -8 -12 -8t-11 8l11 269q0 16 16 16h1151q16 0 16 -14v-4q0 -9 -8 -21l-1124 -1423h1059q57 0 81 24.5t31 71.5z" />
    <glyph glyph-name="bracketleft" unicode="[" 
d="M207 403q-13 0 -19 -2v-200q4 -2 19 -2q37 0 50 25t13 77q0 54 -13 78t-50 24zM518 330v-49h-82v-78h96v-49h-155v297h155v-52h-96v-69h82zM203 150q-47 0 -74 4v292q61 9 76 9q67 0 96 -37.5t29 -116.5t-29.5 -115t-97.5 -36zM586 451h80l39 -164l38 164h82
q3 -45 13 -297h-60q0 108 -6 213l-41 -168h-55l-41 168h-2q-4 -140 -4 -213h-58q3 156 15 297zM987 150q-60 0 -84 35.5t-24 115.5q0 81 24 117.5t84 36.5t85.5 -37t25.5 -117q0 -79 -25.5 -115t-85.5 -36zM987 403q-29 0 -39 -23.5t-10 -78.5q0 -54 10 -78t39 -24
q30 0 40.5 24t10.5 78q0 55 -10 78.5t-41 23.5zM967 1016q49 0 79.5 -24.5t39 -51t8.5 -53.5q0 -43 -34.5 -72.5t-72.5 -34.5q-213 -23 -340 -147q3 8 9 22t25 53.5t39 75.5t50 80.5t59.5 76t66 53.5t71.5 22zM285 909q39 0 78 -21t69.5 -55t58.5 -74.5t48 -81.5t35 -75
t22 -55l8 -21q-117 148 -319 148q-49 0 -88 30t-39 76q0 53 33.5 91t93.5 38zM643 1214q38 -37 48.5 -102t-2.5 -131t-31.5 -126.5t-35.5 -98.5l-18 -39q20 191 -125 330q-35 35 -42 81.5t24 83.5q23 23 53 34t65 3.5t64 -35.5z" />
    <glyph glyph-name="backslash" unicode="\" 
d="M207 403q-13 0 -19 -2v-200q4 -2 19 -2q37 0 50 25t13 77q0 54 -13 78t-50 24zM518 330v-49h-82v-78h96v-49h-155v297h155v-52h-96v-69h82zM203 150q-47 0 -74 4v292q61 9 76 9q67 0 96 -37.5t29 -116.5t-29.5 -115t-97.5 -36zM586 451h80l39 -164l38 164h82
q3 -45 13 -297h-60q0 108 -6 213l-41 -168h-55l-41 168h-2q-4 -140 -4 -213h-58q3 156 15 297zM987 150q-60 0 -84 35.5t-24 115.5q0 81 24 117.5t84 36.5t85.5 -37t25.5 -117q0 -79 -25.5 -115t-85.5 -36zM987 403q-29 0 -39 -23.5t-10 -78.5q0 -54 10 -78t39 -24
q30 0 40.5 24t10.5 78q0 55 -10 78.5t-41 23.5zM967 1016q49 0 79.5 -24.5t39 -51t8.5 -53.5q0 -43 -34.5 -72.5t-72.5 -34.5q-213 -23 -340 -147q3 8 9 22t25 53.5t39 75.5t50 80.5t59.5 76t66 53.5t71.5 22zM285 909q39 0 78 -21t69.5 -55t58.5 -74.5t48 -81.5t35 -75
t22 -55l8 -21q-117 148 -319 148q-49 0 -88 30t-39 76q0 53 33.5 91t93.5 38zM643 1214q38 -37 48.5 -102t-2.5 -131t-31.5 -126.5t-35.5 -98.5l-18 -39q20 191 -125 330q-35 35 -42 81.5t24 83.5q23 23 53 34t65 3.5t64 -35.5z" />
    <glyph glyph-name="bracketright" unicode="]" 
d="M207 403q-13 0 -19 -2v-200q4 -2 19 -2q37 0 50 25t13 77q0 54 -13 78t-50 24zM518 330v-49h-82v-78h96v-49h-155v297h155v-52h-96v-69h82zM203 150q-47 0 -74 4v292q61 9 76 9q67 0 96 -37.5t29 -116.5t-29.5 -115t-97.5 -36zM586 451h80l39 -164l38 164h82
q3 -45 13 -297h-60q0 108 -6 213l-41 -168h-55l-41 168h-2q-4 -140 -4 -213h-58q3 156 15 297zM987 150q-60 0 -84 35.5t-24 115.5q0 81 24 117.5t84 36.5t85.5 -37t25.5 -117q0 -79 -25.5 -115t-85.5 -36zM987 403q-29 0 -39 -23.5t-10 -78.5q0 -54 10 -78t39 -24
q30 0 40.5 24t10.5 78q0 55 -10 78.5t-41 23.5zM967 1016q49 0 79.5 -24.5t39 -51t8.5 -53.5q0 -43 -34.5 -72.5t-72.5 -34.5q-213 -23 -340 -147q3 8 9 22t25 53.5t39 75.5t50 80.5t59.5 76t66 53.5t71.5 22zM285 909q39 0 78 -21t69.5 -55t58.5 -74.5t48 -81.5t35 -75
t22 -55l8 -21q-117 148 -319 148q-49 0 -88 30t-39 76q0 53 33.5 91t93.5 38zM643 1214q38 -37 48.5 -102t-2.5 -131t-31.5 -126.5t-35.5 -98.5l-18 -39q20 191 -125 330q-35 35 -42 81.5t24 83.5q23 23 53 34t65 3.5t64 -35.5z" />
    <glyph glyph-name="asciicircum" unicode="^" 
d="M207 403q-13 0 -19 -2v-200q4 -2 19 -2q37 0 50 25t13 77q0 54 -13 78t-50 24zM518 330v-49h-82v-78h96v-49h-155v297h155v-52h-96v-69h82zM203 150q-47 0 -74 4v292q61 9 76 9q67 0 96 -37.5t29 -116.5t-29.5 -115t-97.5 -36zM586 451h80l39 -164l38 164h82
q3 -45 13 -297h-60q0 108 -6 213l-41 -168h-55l-41 168h-2q-4 -140 -4 -213h-58q3 156 15 297zM987 150q-60 0 -84 35.5t-24 115.5q0 81 24 117.5t84 36.5t85.5 -37t25.5 -117q0 -79 -25.5 -115t-85.5 -36zM987 403q-29 0 -39 -23.5t-10 -78.5q0 -54 10 -78t39 -24
q30 0 40.5 24t10.5 78q0 55 -10 78.5t-41 23.5zM967 1016q49 0 79.5 -24.5t39 -51t8.5 -53.5q0 -43 -34.5 -72.5t-72.5 -34.5q-213 -23 -340 -147q3 8 9 22t25 53.5t39 75.5t50 80.5t59.5 76t66 53.5t71.5 22zM285 909q39 0 78 -21t69.5 -55t58.5 -74.5t48 -81.5t35 -75
t22 -55l8 -21q-117 148 -319 148q-49 0 -88 30t-39 76q0 53 33.5 91t93.5 38zM643 1214q38 -37 48.5 -102t-2.5 -131t-31.5 -126.5t-35.5 -98.5l-18 -39q20 191 -125 330q-35 35 -42 81.5t24 83.5q23 23 53 34t65 3.5t64 -35.5z" />
    <glyph glyph-name="underscore" unicode="_" 
d="M207 403q-13 0 -19 -2v-200q4 -2 19 -2q37 0 50 25t13 77q0 54 -13 78t-50 24zM518 330v-49h-82v-78h96v-49h-155v297h155v-52h-96v-69h82zM203 150q-47 0 -74 4v292q61 9 76 9q67 0 96 -37.5t29 -116.5t-29.5 -115t-97.5 -36zM586 451h80l39 -164l38 164h82
q3 -45 13 -297h-60q0 108 -6 213l-41 -168h-55l-41 168h-2q-4 -140 -4 -213h-58q3 156 15 297zM987 150q-60 0 -84 35.5t-24 115.5q0 81 24 117.5t84 36.5t85.5 -37t25.5 -117q0 -79 -25.5 -115t-85.5 -36zM987 403q-29 0 -39 -23.5t-10 -78.5q0 -54 10 -78t39 -24
q30 0 40.5 24t10.5 78q0 55 -10 78.5t-41 23.5zM967 1016q49 0 79.5 -24.5t39 -51t8.5 -53.5q0 -43 -34.5 -72.5t-72.5 -34.5q-213 -23 -340 -147q3 8 9 22t25 53.5t39 75.5t50 80.5t59.5 76t66 53.5t71.5 22zM285 909q39 0 78 -21t69.5 -55t58.5 -74.5t48 -81.5t35 -75
t22 -55l8 -21q-117 148 -319 148q-49 0 -88 30t-39 76q0 53 33.5 91t93.5 38zM643 1214q38 -37 48.5 -102t-2.5 -131t-31.5 -126.5t-35.5 -98.5l-18 -39q20 191 -125 330q-35 35 -42 81.5t24 83.5q23 23 53 34t65 3.5t64 -35.5z" />
    <glyph glyph-name="grave" unicode="`" 
d="M207 403q-13 0 -19 -2v-200q4 -2 19 -2q37 0 50 25t13 77q0 54 -13 78t-50 24zM518 330v-49h-82v-78h96v-49h-155v297h155v-52h-96v-69h82zM203 150q-47 0 -74 4v292q61 9 76 9q67 0 96 -37.5t29 -116.5t-29.5 -115t-97.5 -36zM586 451h80l39 -164l38 164h82
q3 -45 13 -297h-60q0 108 -6 213l-41 -168h-55l-41 168h-2q-4 -140 -4 -213h-58q3 156 15 297zM987 150q-60 0 -84 35.5t-24 115.5q0 81 24 117.5t84 36.5t85.5 -37t25.5 -117q0 -79 -25.5 -115t-85.5 -36zM987 403q-29 0 -39 -23.5t-10 -78.5q0 -54 10 -78t39 -24
q30 0 40.5 24t10.5 78q0 55 -10 78.5t-41 23.5zM967 1016q49 0 79.5 -24.5t39 -51t8.5 -53.5q0 -43 -34.5 -72.5t-72.5 -34.5q-213 -23 -340 -147q3 8 9 22t25 53.5t39 75.5t50 80.5t59.5 76t66 53.5t71.5 22zM285 909q39 0 78 -21t69.5 -55t58.5 -74.5t48 -81.5t35 -75
t22 -55l8 -21q-117 148 -319 148q-49 0 -88 30t-39 76q0 53 33.5 91t93.5 38zM643 1214q38 -37 48.5 -102t-2.5 -131t-31.5 -126.5t-35.5 -98.5l-18 -39q20 191 -125 330q-35 35 -42 81.5t24 83.5q23 23 53 34t65 3.5t64 -35.5z" />
    <glyph glyph-name="a" unicode="a" horiz-adv-x="1255" 
d="M1214 23q8 -1 8 -12t-8 -11h-221q-10 0 -17 7t-7 18v174q-24 -62 -71.5 -106.5t-108.5 -68t-123 -34t-131 -10.5q-201 0 -313.5 81t-112.5 222q0 136 117.5 218.5t308.5 82.5q113 0 237 -33t197 -84v149q0 195 -108 316t-281 121q-144 0 -240.5 -69.5t-116.5 -152.5
q27 3 45.5 -13.5t18.5 -43.5q0 -25 -15 -43t-45 -18q-26 0 -42.5 19.5t-16.5 47.5q0 126 119.5 215.5t292.5 89.5q198 0 321 -124t123 -326v-555q0 -19 7 -30t14 -13.5t20 -3.5zM535 12q62 0 118.5 8.5t116 32t102 59.5t70 97t27.5 139v86q-68 47 -193 82t-241 35
q-165 0 -266 -74t-101 -194q0 -121 96.5 -196t270.5 -75z" />
    <glyph glyph-name="b" unicode="b" horiz-adv-x="1349" 
d="M721 1085q102 0 195.5 -39t165.5 -108.5t114.5 -174.5t42.5 -228q0 -125 -42.5 -230.5t-114.5 -176t-165.5 -109.5t-195.5 -39q-143 0 -271 76t-182 202l-18 -240q0 -18 -19 -18h-6q-16 0 -16 20v1498q0 19 -7 30t-14 13.5t-20 3.5l-197 10q-7 1 -7 11.5t7 10.5h269
q10 0 17 -6.5t7 -17.5v-768q52 129 182.5 204.5t274.5 75.5zM721 12q120 0 224.5 65t169.5 186t65 272q0 116 -38 215t-101.5 164.5t-146.5 102t-173 36.5q-107 0 -210.5 -48t-173 -139t-69.5 -200v-254q1 -114 70 -208t171.5 -143t211.5 -49z" />
    <glyph glyph-name="c" unicode="c" horiz-adv-x="1189" 
d="M1018 633q-23 0 -40 16.5t-17 44.5q0 30 26 48.5t57 5.5q0 35 -13 74t-44 80.5t-76 74.5t-115.5 54.5t-156.5 21.5q-204 0 -336.5 -147t-132.5 -371q0 -227 132 -375t333 -148q145 0 261 74t161 201q5 15 17.5 13t8.5 -17q-46 -142 -164.5 -222.5t-283.5 -80.5
q-228 0 -376 153.5t-148 401.5q0 245 148.5 397.5t379.5 152.5q94 0 172.5 -24t130 -63.5t86.5 -90t48 -103.5t7 -104q-7 -67 -65 -67z" />
    <glyph glyph-name="d" unicode="d" horiz-adv-x="1372" 
d="M1354 23q8 -1 8 -12t-8 -11h-269q-10 0 -17 7t-7 18v206q-51 -117 -167.5 -184t-264.5 -67q-102 0 -195.5 39t-165.5 109.5t-114.5 176t-42.5 230.5q0 123 42.5 228t114.5 174.5t165.5 108.5t195.5 39q148 0 264.5 -70.5t167.5 -193.5v697q0 47 -41 47l-217 10
q-7 1 -7 11.5t7 10.5h289q10 0 17 -6.5t7 -17.5v-1493q0 -19 7 -30t14 -13.5t20 -3.5zM629 12q116 0 214 46t157.5 132t60.5 195v274q0 173 -125.5 283.5t-306.5 110.5q-90 0 -173 -36.5t-146.5 -102t-101.5 -164.5t-38 -215q0 -151 65 -272t169.5 -186t224.5 -65z" />
    <glyph glyph-name="e" unicode="e" horiz-adv-x="1196" 
d="M621 1085q222 0 348.5 -138.5t126.5 -377.5q0 -7 -7 -12.5t-16 -5.5h-35l-868 2v-18q0 -230 126 -376.5t331 -146.5q302 0 405 226q7 17 19 11q13 -6 4 -26q-61 -123 -164 -183t-264 -60q-232 0 -374 152.5t-142 402.5q0 162 67.5 288t183.5 194t259 68zM172 588l868 -2
q10 211 -105.5 339t-313.5 128q-176 0 -304 -131t-145 -334z" />
    <glyph glyph-name="f" unicode="f" horiz-adv-x="739" 
d="M586 1595q96 -1 147.5 -48.5t46.5 -110.5q-2 -22 -15.5 -37t-33.5 -15q-24 0 -37.5 15.5t-13.5 36.5q0 23 16 37.5t41 11.5q-25 80 -151 80q-123 1 -177.5 -66t-54.5 -188v-246h340q15 0 15 -14v-4q0 -6 -4.5 -10.5t-10.5 -4.5h-340v-952q0 -47 41 -47l217 -10
q8 0 8 -11.5t-8 -11.5h-551q-7 0 -7 11.5t7 11.5l197 10q13 1 20 3.5t14 13.5t7 30v952h-211q-14 0 -14 15v4q0 14 14 14h211v246q0 134 69.5 209.5t217.5 74.5z" />
    <glyph glyph-name="g" unicode="g" horiz-adv-x="1267" 
d="M1165 1122q78 0 78 -61q0 -26 -16.5 -43t-42.5 -17q-30 0 -47 24.5t-11 51.5q-47 -2 -101 -38.5t-81 -98.5q64 -83 64 -186q0 -142 -113.5 -239t-300.5 -97q-128 0 -223 45q-67 -4 -104.5 -40.5t-37.5 -98.5q0 -60 52.5 -92.5t146.5 -32.5h322q193 0 297 -76.5
t104 -206.5q0 -133 -148.5 -217t-388.5 -84q-245 0 -383.5 81t-138.5 218q0 95 65.5 161t180.5 89q-72 14 -113 55t-41 105q0 62 41 103.5t111 53.5q-76 46 -118 117.5t-42 155.5q0 142 113.5 236.5t302.5 94.5q216 0 332 -122q34 74 102 116.5t139 42.5zM594 451
q161 0 257.5 86.5t96.5 216.5q0 129 -97 214t-259 85t-259 -85t-97 -214q0 -130 97.5 -216.5t260.5 -86.5zM1092 -84q0 110 -88.5 175t-253.5 65h-295q-137 -2 -220 -68t-83 -174q0 -122 122 -194t340 -72q216 0 347 73.5t131 194.5z" />
    <glyph glyph-name="h" unicode="h" horiz-adv-x="1464" 
d="M1462 23q8 -1 8 -12t-8 -11h-551q-7 0 -7 11t7 12l187 10q13 1 20 3.5t14 13.5t7 30v524q0 200 -107 324.5t-289 124.5q-156 0 -280.5 -97.5t-124.5 -224.5v-651q0 -47 41 -47l209 -10q8 -1 8 -12t-8 -11h-531q-7 0 -7 11t7 12l185 10q13 1 20 3.5t14 13.5t7 30v1438
q0 19 -7 30t-14 13.5t-20 3.5l-183 10q-7 1 -7 11.5t7 10.5h250q11 0 18 -7t7 -17v-721q47 105 161 169t248 64q210 0 330.5 -130t120.5 -351v-524q0 -47 41 -47z" />
    <glyph glyph-name="i" unicode="i" horiz-adv-x="645" 
d="M311 1337q-26 0 -44.5 19t-18.5 47q0 25 18.5 43t44.5 18t45 -18t19 -43q0 -28 -19 -47t-45 -19zM68 0q-8 0 -8 11t8 12l196 10q13 1 20 3.5t14 13.5t7 30v905q0 19 -7 30t-14 13.5t-20 3.5l-196 10q-8 2 -8 12.5t8 10.5h268q10 0 17 -7t7 -18v-960q0 -19 7 -30t14 -13.5
t20 -3.5l197 -10q8 -1 8 -12t-8 -11h-530z" />
    <glyph glyph-name="j" unicode="j" horiz-adv-x="571" 
d="M307 1337q-26 0 -44.5 19t-18.5 47q0 25 18.5 43t44.5 18t45 -18t19 -43q0 -28 -19 -47t-45 -19zM-66 -293q-7 31 6.5 49.5t34.5 18.5q16 0 28.5 -13t12.5 -32q0 -28 -30 -41q6 -23 42 -44.5t101 -21.5q178 0 178 262v1100q0 47 -41 47l-217 10q-7 2 -7 12.5t7 10.5h289
q10 0 17 -7t7 -18v-1155q0 -295 -235 -295q-80 0 -131 32t-62 85z" />
    <glyph glyph-name="k" unicode="k" horiz-adv-x="1382" 
d="M1364 23q8 -1 8 -12t-8 -11h-264q-18 0 -29 14l-465 561l-264 -264v-231q0 -19 7 -30t14 -13.5t20 -3.5l197 -10q8 0 8 -11.5t-8 -11.5h-531q-7 0 -7 11.5t7 11.5l197 10q13 1 20 3.5t14 13.5t7 30v1438q0 19 -7 30t-14 13.5t-20 3.5l-197 10q-7 1 -7 11.5t7 10.5h268
q11 0 18 -7t7 -17v-1215l637 639q14 14 6.5 23.5t-31.5 11.5l-223 10q-7 2 -7 12.5t7 10.5h582q7 0 7 -10.5t-7 -12.5l-176 -10q-77 -3 -115 -41l-379 -379l469 -557q19 -22 43 -22z" />
    <glyph glyph-name="l" unicode="l" horiz-adv-x="628" 
d="M49 0q-7 0 -7 11t7 12l197 10q13 1 20 3.5t14 13.5t7 30v1438q0 19 -7 30t-14 13.5t-20 3.5l-197 10q-7 0 -7 11t7 11h268q11 0 18 -7t7 -17v-1493q0 -19 7 -30t14 -13.5t20 -3.5l197 -10q8 -1 8 -12t-8 -11h-531z" />
    <glyph glyph-name="m" unicode="m" horiz-adv-x="2326" 
d="M2304 23q8 -1 8 -12t-8 -11h-510q-8 0 -8.5 11.5t8.5 11.5l186 10q13 1 20 3.5t14 13.5t7 30v524q0 203 -109 326t-288 123q-170 0 -286.5 -116t-116.5 -300v-557q0 -19 6 -29.5t13.5 -13.5t21.5 -4l206 -10q9 0 8.5 -11.5t-8.5 -11.5h-530q-8 0 -8 11.5t8 11.5l186 10
q13 1 20 3.5t14 13.5t7 30v524q0 203 -109 326t-288 123q-183 0 -300.5 -101t-117.5 -260v-612q0 -19 6 -29.5t13.5 -13.5t21.5 -4l209 -10q8 0 8 -11.5t-8 -11.5h-530q-8 0 -8 11t8 12l184 10q20 2 30.5 11t10.5 36v905q0 19 -7 30t-14 13.5t-20 3.5l-182 10q-8 0 -8 11.5
t8 11.5h250q10 0 17 -7t7 -18v-204q44 116 157 182.5t265 66.5q165 0 280.5 -86.5t155.5 -242.5q35 151 150.5 240t269.5 89q206 0 329.5 -128t123.5 -353v-524q0 -19 7 -30t14 -13.5t20 -3.5z" />
    <glyph glyph-name="n" unicode="n" horiz-adv-x="1492" 
d="M1487 23q7 -1 7 -12t-7 -11h-531q-8 0 -8 11t8 12l187 10q13 1 20 3.5t14 13.5t7 30v524q0 203 -110.5 326t-289.5 123q-121 0 -218 -43t-156.5 -132t-59.5 -210v-588q0 -47 41 -47l209 -10q8 -1 8 -12t-8 -11h-530q-8 0 -8 11t8 12l184 10q13 1 20 3.5t14 13.5t7 30v905
q0 19 -7 30t-14 13.5t-20 3.5l-182 10q-8 2 -8 12.5t8 10.5h250q10 0 17 -7t7 -18v-223q45 128 163.5 198t274.5 70q207 0 331 -128.5t124 -352.5v-524q0 -47 41 -47z" />
    <glyph glyph-name="o" unicode="o" horiz-adv-x="1298" 
d="M111 535q0 246 151 398t387 152q237 0 388 -152t151 -398q0 -248 -151 -401.5t-388 -153.5t-387.5 153t-150.5 402zM170 535q0 -228 134.5 -375.5t344.5 -147.5t344.5 147.5t134.5 375.5q0 225 -134.5 371.5t-344.5 146.5t-344.5 -146.5t-134.5 -371.5z" />
    <glyph glyph-name="p" unicode="p" horiz-adv-x="1402" 
d="M774 1085q102 0 195.5 -39t165.5 -108.5t114.5 -174.5t42.5 -228q0 -125 -42.5 -230.5t-114.5 -176t-165.5 -109.5t-195.5 -39q-136 0 -257.5 75t-174.5 201v-586q0 -47 41 -47l217 -10q8 -1 8 -12t-8 -11h-551q-7 0 -7 11t7 12l197 10q15 1 22.5 4t13 13t5.5 30v1315
q0 19 -7 30t-14 13.5t-20 3.5l-197 10q-7 2 -7 12.5t7 10.5h268q11 0 18 -7.5t7 -17.5v-223q36 82 107 144t155.5 93t169.5 31zM774 12q120 0 224.5 65t169.5 186t65 272q0 116 -38 215t-101.5 164.5t-146.5 102t-173 36.5q-74 0 -150.5 -29t-139.5 -78.5t-102.5 -123
t-39.5 -156.5v-254q1 -69 26.5 -132.5t68.5 -111.5t98.5 -83.5t117 -54t121.5 -18.5z" />
    <glyph glyph-name="q" unicode="q" horiz-adv-x="1347" 
d="M1397 -387q7 -1 7 -12t-7 -11h-551q-8 0 -8 11t8 12l196 10q13 1 20 3.5t14 13.5t7 30v568q-53 -119 -178 -188.5t-276 -69.5q-102 0 -195.5 39t-165.5 109.5t-114.5 176t-42.5 230.5q0 123 42.5 228t114.5 174.5t165.5 108.5t195.5 39q152 0 277 -74t177 -200l7 229
q0 10 6.5 17.5t15.5 7.5h6q8 0 14.5 -7.5t6.5 -17.5v-1370q0 -47 41 -47zM629 12q117 0 220 46t168 132.5t66 194.5v274q0 114 -64.5 205.5t-167.5 140t-222 48.5q-90 0 -173 -36.5t-146.5 -102t-101.5 -164.5t-38 -215q0 -151 65 -272t169.5 -186t224.5 -65z" />
    <glyph glyph-name="r" unicode="r" horiz-adv-x="970" 
d="M692 1085q119 0 176.5 -55t57.5 -143q0 -25 -15 -42.5t-39 -17.5q-23 0 -37 16.5t-14 37.5q0 24 18.5 39t45.5 12q-8 52 -56 86.5t-137 34.5q-144 0 -238 -101t-94 -262v-610q0 -19 7 -30t14 -13.5t20 -3.5l197 -10q8 -1 8 -12t-8 -11h-530q-8 0 -8 11t8 12l196 10
q13 1 20 3.5t14 13.5t7 30v905q0 19 -7 30t-14 13.5t-20 3.5l-196 10q-8 2 -8 12.5t8 10.5h251q11 0 18 -7.5t7 -17.5l12 -194q39 111 128 175t208 64z" />
    <glyph glyph-name="s" unicode="s" horiz-adv-x="1087" 
d="M137 180q31 -79 152.5 -123.5t265.5 -44.5q176 0 277.5 76.5t99.5 183.5q-1 60 -28.5 103t-73.5 67.5t-105.5 41t-125 28t-130.5 23.5t-124 32t-104.5 48.5t-72.5 78.5t-27 117q0 118 100.5 196t295.5 78q112 0 195.5 -26t126.5 -67.5t61.5 -85t13.5 -85.5
q-6 -55 -49 -55q-18 0 -30.5 12.5t-12.5 30.5q0 21 15 33t32 12q4 17 -3.5 40.5t-32.5 51.5t-63.5 51.5t-104.5 39.5t-148 16q-72 0 -131 -15t-98.5 -39t-66.5 -55.5t-39 -64t-12 -64.5q0 -60 27 -102.5t72.5 -66.5t105 -40.5t125 -27.5t131 -23t124.5 -32t105 -50
t73.5 -81.5t27.5 -121.5q0 -126 -115.5 -208t-310.5 -82q-197 0 -330 69t-133 174q0 18 13 31.5t34 13.5q17 0 29 -13t12 -30q0 -16 -10.5 -30t-32.5 -15z" />
    <glyph glyph-name="t" unicode="t" horiz-adv-x="813" 
d="M768 1065q8 0 8 -16.5t-8 -16.5h-469v-743q0 -128 58 -202.5t163 -74.5q92 0 156.5 52t64.5 143v20q0 12 12.5 12t12.5 -12v-22q0 -102 -69 -163.5t-177 -61.5q-131 0 -203.5 80.5t-72.5 228.5v743h-168q-8 0 -8 16.5t8 16.5h176q12 7 15 57.5t3 194.5q0 6 14.5 6
t14.5 -6v-252h469z" />
    <glyph glyph-name="u" unicode="u" horiz-adv-x="1419" 
d="M1360 23q8 -1 8 -12t-8 -11h-236q-10 0 -17 7t-7 18v219q-46 -123 -157 -193.5t-265 -70.5q-184 0 -305 123t-121 313v569q0 19 -7 30t-14 13.5t-20 3.5l-164 10q-7 2 -7 12.5t7 10.5h236q10 0 17 -7t7 -18v-624q0 -109 48.5 -201.5t134 -147t188.5 -55.5
q189 -1 305.5 111.5t116.5 292.5v569q0 19 -7 30t-14 13.5t-20 3.5l-164 10q-7 2 -7 12.5t7 10.5h235q10 0 17.5 -7.5t7.5 -17.5v-960q0 -19 7 -30t14 -13.5t20 -3.5z" />
    <glyph glyph-name="v" unicode="v" horiz-adv-x="1404" 
d="M1407 1065q7 0 7 -11.5t-7 -11.5l-176 -10q-36 -4 -47 -28l-447 -986q-8 -18 -24 -18h-21q-20 0 -28 18l-433 969q-8 19 -19.5 29.5t-18 12.5t-19.5 3l-176 10q-8 2 -8 12.5t8 10.5h518q8 0 8 -10.5t-8 -12.5l-197 -10q-13 -1 -19 -3.5t-11.5 -12t2.5 -27.5l418 -948
l440 965q4 10 -7.5 18t-25.5 8l-196 10q-8 2 -8 12.5t8 10.5h487z" />
    <glyph glyph-name="w" unicode="w" horiz-adv-x="1904" 
d="M1909 1065q7 0 7 -11.5t-7 -11.5l-176 -10q-32 -4 -45 -41l-347 -973q-6 -18 -24 -18h-4q-19 0 -25 18l-315 902l-348 -900q-9 -20 -27 -20h-10q-20 0 -27 20l-344 973q-12 36 -47 39l-176 10q-8 2 -8 12.5t8 10.5h508q8 0 8 -11.5t-8 -11.5l-197 -10q-19 -2 -28 -12.5
t-3 -28.5l326 -940l344 891q6 21 27 21h18q20 0 27 -21l303 -874l328 923q13 38 -33 41l-197 10q-7 0 -7 11.5t7 11.5h492z" />
    <glyph glyph-name="x" unicode="x" horiz-adv-x="1357" 
d="M1325 23q7 0 7 -11.5t-7 -11.5h-496q-7 0 -7 11.5t7 11.5l168 10q28 1 37.5 12.5t-2.5 26.5l-377 452l-358 -450q-12 -15 0.5 -26.5t44.5 -14.5l137 -10q7 0 7 -11.5t-7 -11.5h-430q-7 0 -7 11.5t7 11.5l135 10q48 3 82 45l371 469l-373 448q-29 32 -80 37l-135 10
q-7 2 -7 12.5t7 10.5h488q7 0 7 -11.5t-7 -11.5l-168 -10q-27 -1 -35.5 -14t2.5 -25l348 -418l332 416q12 15 -0.5 26.5t-44.5 14.5l-144 10q-7 0 -7 11.5t7 11.5h457q8 0 8 -11.5t-8 -11.5l-156 -10q-47 -3 -81 -45l-345 -436l402 -483q25 -31 78 -35z" />
    <glyph glyph-name="y" unicode="y" horiz-adv-x="1396" 
d="M1399 1065q7 0 7 -11.5t-7 -11.5l-176 -10q-39 -3 -56 -43l-532 -1206q-45 -103 -103 -153t-145 -50q-51 0 -87.5 22.5t-45.5 57.5q-8 28 4.5 49t38.5 21q17 0 28 -12t11 -31q0 -15 -9.5 -26.5t-21.5 -14.5q23 -33 90 -33q65 0 118 51.5t83 118.5l98 217h-2q-20 0 -28 18
l-437 977q-7 15 -15.5 22.5t-15 10t-22.5 4.5l-176 10q-8 0 -8 11.5t8 11.5h516q8 0 8 -11.5t-8 -11.5l-197 -10q-12 -1 -19 -3.5t-14 -9.5t1 -20l426 -960l424 954q7 24 0.5 30.5t-27.5 8.5l-197 10q-7 0 -7 11.5t7 11.5h488z" />
    <glyph glyph-name="z" unicode="z" horiz-adv-x="1120" 
d="M999 268q1 8 12 8t11 -8v-243q0 -11 -7 -18t-18 -7h-880q-8 0 -8 8v2q0 7 8 15l803 1007h-703q-20 0 -30.5 -13.5t-16.5 -45.5l-37 -197q-1 -8 -11.5 -8t-10.5 8l20 264q4 25 25 25h833q8 0 8 -8v-4q0 -3 -4 -11l-805 -1009h748q27 0 35.5 12.5t11.5 46.5z" />
    <glyph glyph-name="braceleft" unicode="{" 
d="M207 403q-13 0 -19 -2v-200q4 -2 19 -2q37 0 50 25t13 77q0 54 -13 78t-50 24zM518 330v-49h-82v-78h96v-49h-155v297h155v-52h-96v-69h82zM203 150q-47 0 -74 4v292q61 9 76 9q67 0 96 -37.5t29 -116.5t-29.5 -115t-97.5 -36zM586 451h80l39 -164l38 164h82
q3 -45 13 -297h-60q0 108 -6 213l-41 -168h-55l-41 168h-2q-4 -140 -4 -213h-58q3 156 15 297zM987 150q-60 0 -84 35.5t-24 115.5q0 81 24 117.5t84 36.5t85.5 -37t25.5 -117q0 -79 -25.5 -115t-85.5 -36zM987 403q-29 0 -39 -23.5t-10 -78.5q0 -54 10 -78t39 -24
q30 0 40.5 24t10.5 78q0 55 -10 78.5t-41 23.5zM967 1016q49 0 79.5 -24.5t39 -51t8.5 -53.5q0 -43 -34.5 -72.5t-72.5 -34.5q-213 -23 -340 -147q3 8 9 22t25 53.5t39 75.5t50 80.5t59.5 76t66 53.5t71.5 22zM285 909q39 0 78 -21t69.5 -55t58.5 -74.5t48 -81.5t35 -75
t22 -55l8 -21q-117 148 -319 148q-49 0 -88 30t-39 76q0 53 33.5 91t93.5 38zM643 1214q38 -37 48.5 -102t-2.5 -131t-31.5 -126.5t-35.5 -98.5l-18 -39q20 191 -125 330q-35 35 -42 81.5t24 83.5q23 23 53 34t65 3.5t64 -35.5z" />
    <glyph glyph-name="bar" unicode="|" 
d="M207 403q-13 0 -19 -2v-200q4 -2 19 -2q37 0 50 25t13 77q0 54 -13 78t-50 24zM518 330v-49h-82v-78h96v-49h-155v297h155v-52h-96v-69h82zM203 150q-47 0 -74 4v292q61 9 76 9q67 0 96 -37.5t29 -116.5t-29.5 -115t-97.5 -36zM586 451h80l39 -164l38 164h82
q3 -45 13 -297h-60q0 108 -6 213l-41 -168h-55l-41 168h-2q-4 -140 -4 -213h-58q3 156 15 297zM987 150q-60 0 -84 35.5t-24 115.5q0 81 24 117.5t84 36.5t85.5 -37t25.5 -117q0 -79 -25.5 -115t-85.5 -36zM987 403q-29 0 -39 -23.5t-10 -78.5q0 -54 10 -78t39 -24
q30 0 40.5 24t10.5 78q0 55 -10 78.5t-41 23.5zM967 1016q49 0 79.5 -24.5t39 -51t8.5 -53.5q0 -43 -34.5 -72.5t-72.5 -34.5q-213 -23 -340 -147q3 8 9 22t25 53.5t39 75.5t50 80.5t59.5 76t66 53.5t71.5 22zM285 909q39 0 78 -21t69.5 -55t58.5 -74.5t48 -81.5t35 -75
t22 -55l8 -21q-117 148 -319 148q-49 0 -88 30t-39 76q0 53 33.5 91t93.5 38zM643 1214q38 -37 48.5 -102t-2.5 -131t-31.5 -126.5t-35.5 -98.5l-18 -39q20 191 -125 330q-35 35 -42 81.5t24 83.5q23 23 53 34t65 3.5t64 -35.5z" />
    <glyph glyph-name="braceright" unicode="}" 
d="M207 403q-13 0 -19 -2v-200q4 -2 19 -2q37 0 50 25t13 77q0 54 -13 78t-50 24zM518 330v-49h-82v-78h96v-49h-155v297h155v-52h-96v-69h82zM203 150q-47 0 -74 4v292q61 9 76 9q67 0 96 -37.5t29 -116.5t-29.5 -115t-97.5 -36zM586 451h80l39 -164l38 164h82
q3 -45 13 -297h-60q0 108 -6 213l-41 -168h-55l-41 168h-2q-4 -140 -4 -213h-58q3 156 15 297zM987 150q-60 0 -84 35.5t-24 115.5q0 81 24 117.5t84 36.5t85.5 -37t25.5 -117q0 -79 -25.5 -115t-85.5 -36zM987 403q-29 0 -39 -23.5t-10 -78.5q0 -54 10 -78t39 -24
q30 0 40.5 24t10.5 78q0 55 -10 78.5t-41 23.5zM967 1016q49 0 79.5 -24.5t39 -51t8.5 -53.5q0 -43 -34.5 -72.5t-72.5 -34.5q-213 -23 -340 -147q3 8 9 22t25 53.5t39 75.5t50 80.5t59.5 76t66 53.5t71.5 22zM285 909q39 0 78 -21t69.5 -55t58.5 -74.5t48 -81.5t35 -75
t22 -55l8 -21q-117 148 -319 148q-49 0 -88 30t-39 76q0 53 33.5 91t93.5 38zM643 1214q38 -37 48.5 -102t-2.5 -131t-31.5 -126.5t-35.5 -98.5l-18 -39q20 191 -125 330q-35 35 -42 81.5t24 83.5q23 23 53 34t65 3.5t64 -35.5z" />
    <glyph glyph-name="asciitilde" unicode="~" 
d="M207 403q-13 0 -19 -2v-200q4 -2 19 -2q37 0 50 25t13 77q0 54 -13 78t-50 24zM518 330v-49h-82v-78h96v-49h-155v297h155v-52h-96v-69h82zM203 150q-47 0 -74 4v292q61 9 76 9q67 0 96 -37.5t29 -116.5t-29.5 -115t-97.5 -36zM586 451h80l39 -164l38 164h82
q3 -45 13 -297h-60q0 108 -6 213l-41 -168h-55l-41 168h-2q-4 -140 -4 -213h-58q3 156 15 297zM987 150q-60 0 -84 35.5t-24 115.5q0 81 24 117.5t84 36.5t85.5 -37t25.5 -117q0 -79 -25.5 -115t-85.5 -36zM987 403q-29 0 -39 -23.5t-10 -78.5q0 -54 10 -78t39 -24
q30 0 40.5 24t10.5 78q0 55 -10 78.5t-41 23.5zM967 1016q49 0 79.5 -24.5t39 -51t8.5 -53.5q0 -43 -34.5 -72.5t-72.5 -34.5q-213 -23 -340 -147q3 8 9 22t25 53.5t39 75.5t50 80.5t59.5 76t66 53.5t71.5 22zM285 909q39 0 78 -21t69.5 -55t58.5 -74.5t48 -81.5t35 -75
t22 -55l8 -21q-117 148 -319 148q-49 0 -88 30t-39 76q0 53 33.5 91t93.5 38zM643 1214q38 -37 48.5 -102t-2.5 -131t-31.5 -126.5t-35.5 -98.5l-18 -39q20 191 -125 330q-35 35 -42 81.5t24 83.5q23 23 53 34t65 3.5t64 -35.5z" />
    </font>
</defs>
</svg>
