<svg width="42" height="42" viewBox="0 0 42 42" fill="none" xmlns="http://www.w3.org/2000/svg">
<path d="M31.5098 34.614L31.2339 34.1779L30.8067 34.4675C25.8873 37.802 20.6296 38.8632 14.936 37.5234C10.3376 36.4373 6.66495 33.9492 3.9451 30.1669L3.94501 30.1667C1.3121 26.5078 0.125858 22.0429 0.603485 17.5979C1.08112 13.1527 3.1908 9.02459 6.54554 5.97811L6.54575 5.97792C13.5137 -0.357042 24.1326 -0.687814 31.5708 5.22805L31.5708 5.22808C39.1724 11.273 40.8993 22.3475 34.8753 30.4641L34.6273 30.7984L34.911 31.1029C34.9242 31.1171 34.9438 31.1391 34.9673 31.1655C35.0258 31.2312 35.1086 31.3241 35.1773 31.3913C35.1773 31.3913 35.1774 31.3914 35.1775 31.3914L40.7551 36.8451C40.7552 36.8453 40.7553 36.8454 40.7554 36.8455C41.4575 37.5373 41.6576 38.3428 41.3792 39.2628C41.1019 40.1789 40.4677 40.7512 39.4873 40.9445L39.4868 40.9446C38.5682 41.1265 37.789 40.8565 37.1014 40.1825C35.332 38.4467 33.5597 36.7134 31.7845 34.9826C31.6835 34.8666 31.5916 34.7434 31.5098 34.614ZM5.50502 19.415L5.50501 19.4152C5.47312 27.0373 11.7362 33.199 19.4832 33.2159H19.4835C27.1609 33.2283 33.4438 27.1322 33.4934 19.5772C33.5527 12.0618 27.2194 5.87989 19.5155 5.85948C11.8881 5.83907 5.53969 11.9577 5.50502 19.415Z" fill="black" stroke="white"/>
</svg>
